<svg><defs><clipPath viewbox="0 0 1099.513 589.115" id="icon--error" class="icon icon--error"><path d="M200.587 498.854v-79.067H0v-58.76l5.703-9.624c9.948-16.783 20.552-34.947 22.965-39.34 1.283-2.333 5.316-9.258 8.962-15.388 7.195-12.096 18.997-32.225 34.536-58.902 15.608-26.796 23.51-40.31 32.577-55.72 8.706-14.79 21.645-36.91 37.25-63.677a4420.486 4420.486 0 0 1 15.603-26.533c3.647-6.13 7.936-13.53 9.53-16.45 1.597-2.918 5.894-10.32 9.552-16.45 10.318-17.293 24.38-41.418 27.22-46.697l2.567-4.776 42.163-.278 42.163-.277.27 165.31.268 165.31 35.82.28 35.82.28v81.664l-35.82.278-35.82.28-.272 78.802-.272 78.802h-90.197v-79.068zm0-244.63c0-51.854-.382-83.844-1.002-83.844-.898 0-12.795 20.118-12.795 21.637 0 .343-3.194 6.003-7.097 12.577-3.904 6.574-9.556 16.25-12.56 21.505-3.005 5.252-6.91 11.938-8.675 14.857-1.767 2.92-7.654 12.948-13.082 22.287-22.856 39.32-28.314 48.383-36.223 60.144-4.58 6.812-8.33 12.9-8.33 13.532 0 .805 14.857 1.146 49.882 1.146h49.882v-83.843zm328.529 334.278c-42.292-4.84-71.266-20.66-94.825-51.775-19.773-26.115-36.38-73.213-43.108-122.247-10.86-79.17-10.87-160.727-.032-238.202 3.216-22.986 6.894-38.75 14.625-62.678 8.89-27.518 18.604-46.597 32.806-64.436 20.274-25.464 43.254-39.28 77.655-46.682 14.38-3.095 48.085-3.346 62.613-.468 23.984 4.752 37.596 9.978 53.69 20.616 34.08 22.525 58.395 68.377 71.037 133.953 2.8 14.518 7.06 54.45 8.633 80.882 1.685 28.333.71 109.912-1.588 132.97-4.518 45.317-8.408 66.46-18.326 99.6-18.17 60.716-52.676 100.32-98.342 112.87-5.17 1.422-13.29 3.28-18.042 4.127-10.93 1.95-35.772 2.732-46.794 1.47zm34.34-85.82c17.826-5.55 30.813-20.8 38.323-45.01 10.71-34.524 14.292-62.205 15.992-123.602 1.68-60.66-.52-124.422-5.37-155.795-3.8-24.568-11.06-50.61-17.55-62.962-12.34-23.485-34.014-35.223-56.373-30.532-10.44 2.19-17.785 6.2-25.344 13.834-7.775 7.852-12.672 16.93-18.387 34.09-11.73 35.22-15.57 74.742-15.57 160.257 0 87.01 3.77 125.027 16.042 161.78 9.157 27.42 21.764 42.615 40.207 48.463 6.553 2.08 20.506 1.818 28.027-.522zm373.677-3.828v-79.067H737.607v-60.783l8.856-14.98c4.87-8.238 10.057-17.128 11.526-19.755 1.468-2.627 5.654-9.79 9.302-15.92 7.28-12.23 15.714-26.613 30.813-52.535 5.44-9.34 13.81-23.667 18.6-31.84a43654.82 43654.82 0 0 0 50.906-87.026 20822.66 20822.66 0 0 1 18.316-31.31c19.875-33.892 23.426-39.99 25.96-44.574 1.45-2.627 4.608-7.97 7.016-11.874 2.407-3.903 6.48-10.828 9.05-15.39 2.57-4.56 7.203-12.47 10.297-17.577l5.625-9.286h83.463l.27 165.297.268 165.3 35.82.278 35.818.28v81.693h-72.169V577.92h-90.211v-79.068zm0-244.63c0-51.182-.386-83.844-.99-83.844-.545 0-2.61 2.985-4.59 6.633-5.73 10.56-22.355 39.855-27.553 48.555-6.916 11.575-21.314 36.18-32.77 56.004-5.49 9.497-15.56 26.093-22.377 36.88l-12.397 19.614h100.677v-83.843z"/></clipPath></defs><symbol viewbox="0 0 16 8" id="icon--arrow" class="icon icon--arrow"><path d="M0 5V4h11.382l-1.287-.655L9.048.935l6.27 3.418-.126.023.125.03-6.27 3.42 1.048-2.552.54-.274z"/></symbol><symbol viewbox="0 0 21 21" id="icon--cross" class="icon icon--cross"><path d="M18.84.968L.97 18.836l1.19 1.19 17.87-17.87z"/><path d="M2.16.968l17.87 17.868-1.19 1.19L.97 2.155z"/></symbol><symbol viewbox="0 0 155.305 35.435" id="icon--logo-aif" class="icon icon--logo-aif"><path d="M144.88 11.4l-.015.12-.014.12-.03.133-.03.147-.043.148-.06.148-.044.134-.058.133-.062.133-.073.118-.06.12-.073.102-.075.104-.088.104-.076.09-.087.09-.087.086-.105.09-.09.073-.102.075-.104.058-.103.075-.12.06-.103.044-.12.06-.118.044-.133.045-.12.03-.044.013-.087.015-.135.03-.132.016-.134.03h-.147l-.148.014h-1.438l.977-4.205h1.493l.136.015.132.014.132.015.12.015.133.03.117.03.104.027.12.045.103.03.104.045.09.044.088.044.09.06.074.044.06.06.057.06.06.06.06.057.043.06.03.06.045.074.03.074.016.073.015.09.015.09.015.09v.102zm2.857 2.726l.163-.266.133-.297.09-.207.044-.09.12-.295.103-.31.088-.31.074-.326.06-.312.044-.326.03-.295v-.31l-.016-.28-.044-.298-.06-.282-.073-.265-.103-.268-.12-.25-.148-.238-.146-.223-.194-.222-.192-.193-.223-.192-.236-.178-.237-.163-.266-.15-.28-.148-.297-.117-.31-.12-.328-.103-.34-.088-.356-.09-.354-.073-.386-.058-.4-.06-.414-.03-.43-.03-.09-.015-.34-.014h-.19l.53-2.28.43-1.806h-3.95l-2.314 9.876-1.286 5.48h4.798l.415-.017.4-.012.397-.032.386-.043.385-.06.34-.074h.03l.357-.09.355-.104.34-.103.326-.12.327-.133.31-.147.296-.164.297-.162.28-.178.267-.194.266-.19.238-.223.238-.21.237-.235.207-.238.193-.25.192-.253.178-.267.162-.28zM33.747 27.04l-.222.015-.22.012-.24.017h-2.443l.978-4.592h2.83l.19.015.18.015.176.015.163.014.162.032.074.03.074.015.134.028.133.045.118.044.12.046.102.044.104.06.09.057.09.046.073.06.06.06.073.073.044.06.06.057.044.074.045.076.03.073.028.074.03.075.015.07.015.09.015.09v.28l-.015.104-.015.18-.045.175-.03.178-.06.162-.043.148-.06.148-.06.134-.072.133-.074.133-.076.104-.074.12-.09.1-.102.105-.104.09-.104.09-.12.088-.116.073-.134.074-.104.06-.03.014-.147.075-.15.058-.162.058-.163.045-.177.046-.193.045-.192.03-.193.03-.222.03zM29.142 13.4h-5.257l.06-.058 6.796-7.537-1.598 7.596zm-3.095 13.624h-2.93l-.165-.014h-.162l-.163-.03-.148-.015-.15-.03-.133-.03-.133-.03-.118-.044-.104-.043-.118-.044-.09-.06-.103-.043-.074-.06-.087-.06-.075-.06-.06-.073-.06-.06-.06-.074-.043-.073-.06-.09-.028-.088-.045-.088-.03-.105-.03-.104-.03-.104-.015-.118-.015-.118v-.283l.015-.147.015-.148.015-.134.03-.133.03-.117.03-.12.042-.117.045-.12.06-.103.06-.104.058-.104.075-.09.074-.103.086-.087.09-.09.09-.074.103-.09.102-.073.104-.076.118-.06.118-.072.133-.06.134-.06.132-.044.15-.06.147-.044.16-.027.15-.045.177-.032.163-.013.177-.015.178-.015.06-.015h3.124l-1.023 4.53zm8.455 2.99l.385-.043.385-.074.104-.015.268-.056.355-.09.34-.104.34-.104.31-.132.31-.134.15-.074.162-.074.282-.163.266-.164.266-.177.253-.193.235-.208.222-.223.208-.222.192-.236.193-.255.162-.25.163-.268.134-.266.132-.28.03-.075.074-.22.104-.298.09-.31.072-.312.06-.326.044-.326.03-.34v-.638l-.03-.296-.044-.295-.075-.283-.088-.266-.105-.25-.134-.254v-.028l-.13-.208-.165-.207-.178-.21-.192-.19-.22-.18-.224-.16-.235-.15-.238-.134-.266-.132-.266-.104-.282-.103-.296-.09-.207-.058-.105-.016-.31-.074-.326-.06-.328-.06-.34-.044-.355-.03-.31-.03h-.045l-.386-.03-.37-.014-.4-.013h-1.969l1.54-7.035 1.63-7.39L36.486 0h-5.612l-6.93 7.596-17.903 19.65 1.88-7.847H3.984L0 34.354h4.354l7.18-7.88-1.804 7.88h4.056l3.51-13.742 3.628-4h7.403l-.592 2.786h-3.48l-.31.012h-.104l-.43.015-.398.045-.385.044-.37.075-.37.075-.356.104-.34.102-.325.118-.31.134-.298.132-.296.164-.265.147-.266.18-.254.175-.236.194-.223.193-.222.19-.19.207-.195.208-.178.222-.162.223-.164.222-.147.222-.12.222-.133.236-.103.238-.104.222-.09.237-.073.22-.075.237-.058.238-.06.267-.03.28-.028.268-.016.266.016.266.03.268.044.266.044.25.073.238.104.25.105.238.12.224.132.22.163.208.162.207.178.195.192.176.223.18.222.162.237.148.237.134.267.133.267.12.296.103.296.09.296.07.325.076.327.06.34.044.356.03.355.015.37.014h2.99l-1.243 5.315h4.324l1.466-5.316h2.948l.43-.015.43-.016h.057l.355-.03.4-.045zm116.73-27.466l-3.11 13.015-.547 2.34h4.25l3.48-15.355h-4.073zM102.914 11.4l.652-3.034H95.6l.77-2.946h9.269l.578-2.872H92.816l-2.65 10.898-1.082 4.457h13.608l.83-3.703h-9.33l.77-2.8h7.952zM48.26 17.903h3.833L55.248 5.76h4.68l2.427 6.25-4.915 5.893h4.502L72.53 5.11l-2.86 12.793h3.718l2.176-8.545 1.036 8.545h3.985l4.057-6.855 1.14-1.94-1.14 4.826-.948 3.97h3.894l2.577-10.84 1.082-4.516h-5.525l-1.08 1.82-4.71 7.864-.843-6.827-.357-2.857h-8.485l-4.87 5.834-2.593-5.834H51.857l-1.23 5.24-1.464 6.265-.904 3.85z"/><path d="M40.35 7.76l.4-1.97 2.963-.03h.298l.133.015.147.015.12.03.133.014.117.03.104.045.06.012.044.017.103.042.105.044.09.044.074.06.086.045.075.06.06.058.06.06.06.075.058.057.045.075.044.074.045.074.045.075.028.088.03.075.015.09.03.103.014.087v.104l.015.103v.12l-.016.103-.014.178-.03.162-.03.163-.03.146-.043.135-.06.133-.044.135-.06.118-.074.104-.075.104-.073.104-.075.09-.088.086-.09.074-.105.09-.102.074-.12.058v.015l-.118.06-.118.06-.133.058-.15.045-.146.06-.163.027-.163.045-.178.03-.177.045-.193.015-.192.03-.208.014-.207.015H39.86l.49-2.37zM34.075 17.9h3.878l1.125-4.516h3.629l.355-.016.358-.028.34-.03.34-.045.326-.045.326-.058.074-.014.25-.06.312-.09.31-.088.298-.104.295-.118.28-.118.268-.15.266-.147.266-.163.238-.177.237-.178.236-.21.21-.205.206-.236.208-.238.177-.252.18-.266.103-.178.043-.09.15-.295.133-.296.116-.31.12-.325.088-.342.09-.355.057-.355.046-.31.03-.297.03-.296v-.282l-.016-.28-.03-.268-.044-.265-.058-.253-.074-.25-.09-.24-.104-.22-.132-.222-.133-.208-.15-.207-.072-.09-.09-.088-.178-.177-.19-.164-.21-.163-.206-.132-.224-.133-.237-.117-.252-.104-.252-.09-.266-.09-.267-.073-.295-.058-.283-.06-.31-.044-.31-.03-.312-.03-.34-.013h-7.286l-.207.903-2.074 8.84-1.302 5.612zm52.67 10.442v.133l-.015.148-.014.15-.016.162-.03.147-.03.148-.044.148-.044.134-.043.118-.046.133-.06.118-.06.105-.058.103-.075.104-.073.104-.074.09-.073.072-.075.09-.088.074-.09.075-.09.073-.087.06-.104.058-.103.06-.105.044-.117.045-.12.044-.117.046-.118.03-.118.03-.016.014-.117.015-.134.028-.133.015h-.15l-.146.017h-1.438l.98-4.208h1.495l.134.016h.118l.134.014.117.016.12.03.102.016.105.027.087.03.09.03.09.044.072.03.075.045.075.045.058.043.044.044.06.045.045.06.044.044.03.06.03.074.03.072.03.075.03.09.014.103.015.104v.118zm3.287 2.25l.12-.28.013-.03.104-.267.102-.295.09-.312.073-.28.045-.18.045-.207.03-.205.027-.208v-.444l-.013-.223-.03-.222-.03-.22-.06-.223-.06-.208-.088-.222-.09-.223-.103-.207-.045-.06-.09-.147-.13-.207-.15-.207-.163-.192-.177-.177-.208-.177-.207-.164-.223-.147-.236-.148-.25-.134-.268-.118-.28-.105-.297-.088-.31-.074-.328-.058-.338-.045-.36-.015-.354-.015h-1.581l.427-1.925.565-2.532h-3.968l-2.147 9.18-1.35 5.777h5.201l.4-.017.4-.03.37-.028.37-.044.16-.03.207-.03.343-.075.34-.073.34-.074.31-.103.312-.104.312-.118.28-.133.282-.133.283-.15.25-.16.25-.164.237-.193.238-.192.207-.192.208-.222.192-.222.194-.236.16-.24.164-.264.15-.253.132-.28zm.133 2.162l-.37 1.6h4.25l3.39-14.956H93.35l-3.185 13.356zm26.299-24.551h-6.367l1.242-5.655h-4.058l-2.31 10.01-1.228 5.345h4.073l1.465-6.324h6.367l-1.348 6.323h3.835l3.523-15.355h-3.893l-1.303 5.655zm-36.829 14.29l.802-3.095H62.785l-7.21 5.256 1.124-5.256h-3.717l-2.355 9.936-1.184 5.02h4.13l1.08-4.93 2.03-1.38 3.466 6.31h4.664l-4.916-8.72 4.22-3.083h5.997l-2.693 11.804h3.907l2.812-11.86h5.495zM137.46 5.7l.638-3.152h-15.194l-.814 3.212h5.524l-3.035 12.143h4.293L132.086 5.7h5.373zM45.4 28.83h-1.982l1.406-1.495 1.408-1.496-.83 2.99zm6.412-9.432h-4.545l-2.444 2.74-4.472 5.004-2.9 3.228-2.074 2.31-1.495 1.674h4.205l2.25-2.31h4.341l-.504 2.31h4.058l.932-3.895 1.466-6.117 1.184-4.945z"/></symbol><symbol viewbox="0 0 146.719 37.424" id="icon--logo-alcatel" class="icon icon--logo-alcatel"><path d="M12.026 28.99h4.38l-2.19-4.985-2.19 4.985z"/><path d="M135.82 33.486h-5.28V21.16h1.536v10.92h3.744v1.406zm-19.49-10.92h-5.08v3.45h4.934v1.405h-4.935v4.66h5.08v1.406h-6.62V21.16h6.62v1.407zm-19.56 0h-2.926v10.92h-1.536v-10.92H89.38v-1.405h7.39v1.407zM66.89 33.6l6.47-12.828L79.827 33.6H66.89zm-8.5-10.086c-.88-.783-2.09-1.208-3.252-1.208-2.762 0-4.87 2.305-4.87 5.035 0 2.697 2.09 5 4.838 5 1.21 0 2.37-.456 3.285-1.276v1.817c-.947.557-2.156.867-3.235.867-3.515 0-6.424-2.795-6.424-6.358 0-3.647 2.928-6.49 6.555-6.49 1.08 0 2.175.26 3.106.833v1.78zm-21.154 9.972h-5.28V21.16h1.538v10.92h3.742v1.406zm-18.786 0l-1.405-3.09H11.39l-1.406 3.09h-1.65l5.884-12.848L20.1 33.486h-1.65zM0 37.424h146.72V16.832H0v20.592zm73.36-24.598L79.827 0H66.89l6.47 12.826z"/></symbol><symbol viewbox="0 0 141.798 41.962" id="icon--logo-alfabank" class="icon icon--logo-alfabank"><path d="M13.47 0c2.86 0 3.756 2.046 4.506 4.095.32.864 7.742 21.19 7.964 21.8.06.168.02.445-.242.547-.262.1-4.12 1.6-4.332 1.68a.415.415 0 0 1-.53-.248c-.082-.213-1.678-4.642-1.86-5.14H7.978c-.18.498-1.796 4.935-1.87 5.14-.075.2-.305.34-.53.25-.226-.09-4.102-1.59-4.33-1.68a.432.432 0 0 1-.245-.55c.274-.764 7.58-20.76 7.955-21.8C9.684 2.08 10.615 0 13.47 0M.417 36.365a.419.419 0 0 0-.416.425v4.746a.42.42 0 0 0 .416.426h26.11c.23 0 .412-.19.412-.426V36.79a.416.416 0 0 0-.413-.425H.415zM13.45 6.635L9.73 17.8h7.496l-3.73-11.164h-.047zm97.138 16.385c0 1.265-.7 2.095-1.986 2.095-.51 0-.928 0-1.59-.18V21.11a7.964 7.964 0 0 1 1.59-.116c1.31.046 1.986.66 1.986 2.027m2.644-.19c0-2.34-1.37-3.955-4.255-3.955-.708 0-1.203.067-1.965.25l-.006-3.373a17.275 17.275 0 0 1 2.183-.127c.85 0 1.922.046 2.864.16l.067-1.953c-1.07-.24-2.623-.387-3.83-.387-1.188 0-3.036.296-3.914.535v12.462a11.67 11.67 0 0 0 4.082.734c3.144 0 4.774-1.67 4.774-4.346m-29.99-.678c0 1.74-.693 2.86-1.834 2.86-.48 0-.73-.025-1.27-.2V19.59c.59-.285.91-.28 1.392-.28 1.14 0 1.712.945 1.712 2.843m-8.687.058c0-1.898.572-2.9 1.712-2.9.483 0 .8-.005 1.393.28v5.223c-.538.175-.793.2-1.27.2-1.302 0-1.835-1.062-1.835-2.802m5.584 7.825V26.64c.312.183.94.46 1.998.46 2.105 0 3.655-1.75 3.655-4.945 0-3.445-1.54-4.917-4.074-4.917-.643 0-1.062.066-1.58.315v-4.06h-2.48v4.06c-.52-.248-.94-.314-1.58-.314-2.535 0-4.076 1.535-4.076 4.975 0 3.198 1.394 4.887 3.653 4.887 1.062 0 1.688-.276 2.003-.46v3.398h2.48zm-21.294-3.102v-7.43c-.657-.1-.767-.12-1.297-.12-.525 0-.655.02-1.313.12v3.43c0 2.76-.752 3.632-2.747 4.192l-.678-1.456c.5-.33.686-.763.822-1.12.14-.41.16-.79.16-2.06v-4.665c1.365-.405 2.39-.58 3.756-.58 1.37 0 2.42.175 3.784.58v9.11h-2.487zm33.098-1.995c-.548.186-.908.23-1.336.23-.89 0-1.397-.35-1.397-1.26 0-.952.638-1.27 1.872-1.27.295 0 .595.043.73.09v.68c0 .735.038 1.214.13 1.53m3.157 1.09c-.657-1-.826-1.586-.826-2.84v-2.55c0-1.375-.16-1.88-.525-2.386-.503-.705-1.345-1.01-2.896-1.01-1.094 0-2.17.12-3.197.377l.368 1.825c.7-.097 1.428-.18 1.954-.18 1.645 0 1.833.24 1.833 1.474v.46c-.364-.1-.778-.17-1.254-.17-2.49 0-3.796 1.21-3.796 3.213 0 1.878 1.398 2.908 3.11 2.908.638 0 1.303-.12 1.826-.33.317-.14.453-.22.865-.492.25.367.742.732.945.8l1.59-1.098zm24.259-1.09c-.546.186-.904.23-1.338.23-.89 0-1.393-.35-1.393-1.26 0-.952.638-1.27 1.87-1.27.3 0 .594.043.73.09v.68c0 .735.04 1.214.13 1.53m3.16 1.09c-.658-1-.828-1.586-.828-2.84v-2.55c0-1.375-.16-1.88-.524-2.386-.505-.705-1.343-1.01-2.895-1.01-1.095 0-2.17.12-3.195.377l.366 1.825c.7-.097 1.43-.18 1.957-.18 1.64 0 1.83.24 1.83 1.474v.46c-.363-.1-.773-.17-1.253-.17-2.487 0-3.794 1.21-3.794 3.213 0 1.878 1.4 2.908 3.11 2.908.636 0 1.3-.12 1.825-.33.318-.14.455-.22.865-.492.246.367.745.732.945.8l1.59-1.098zm-54.122-2.365c0 .93-.328 1.572-1.52 1.572-.403 0-.568 0-1.09-.147v-2.727c.648-.127.705-.15 1.09-.15 1.14 0 1.52.558 1.52 1.452m-5.093-6.27l-.012 9.046a9.576 9.576 0 0 0 3.624.723c2.64 0 4.053-1.367 4.053-3.616 0-2.034-1.25-3.292-3.588-3.292-.593 0-.942.077-1.593.236v-3.095h-2.485zm65.814 9.54v-3.86H126.3v3.86h-2.48V17.48h2.48v3.576h2.816V17.48h2.485v9.455h-2.484zm9.974 0s-.837-2.05-1.28-2.943c-.377-.747-.5-.926-1.207-.926l-.342.007v3.86h-2.49V17.48h2.49v3.573h.42c.646 0 .76-.222 1-.72.234-.487.417-.875.652-1.35.216-.447.395-.83.65-1.085.33-.336.682-.526 1.354-.567a6.64 6.64 0 0 1 1.155.026l-.124 1.72s-.334-.083-.58.138c-.245.217-.372.417-.797 1.34-.443.944-.85 1.257-1.363 1.353v.046c.766.18 1.11.69 1.484 1.435.333.653 1.688 3.546 1.688 3.546h-2.707zm-89.917 0h2.864L47.712 13.72a5.115 5.115 0 0 0-1.624-.25c-.654 0-.89.085-1.404.25L40.1 26.934h2.743s.366-1.158.816-2.594h4.74c.43 1.437.773 2.595.773 2.595m-4.816-4.81s.79-2.648.912-3.063c.318-1.078.797-2.775.797-2.775h.08s.44 1.76.727 2.76c.113.387.867 3.08.867 3.08h-3.383zm56.552.08c0 .88-.71 1.587-1.585 1.587a1.584 1.584 0 0 1-1.586-1.587c0-.873.71-1.59 1.586-1.59.875 0 1.585.717 1.585 1.59"/></symbol><symbol viewbox="0 0 138.41 27.719" id="icon--logo-bork" class="icon icon--logo-bork"><path d="M21.462 20.345c-.077.635-.858.532-1.317.586-4.157.02-8.312.003-12.468.01v-4.325c3.953-.006 7.908 0 11.86-.005.586-.01 1.168.05 1.743.146.438 1.128.243 2.408.18 3.59M19.124 6.283a12.39 12.39 0 0 1 2.14.18c.218 1.188.22 2.428.016 3.615-.51.094-1.017.182-1.532.177-4.024-.005-8.047-.01-12.068.002-.006-1.324 0-2.648-.004-3.97 3.816-.01 7.63 0 11.446-.007m9.453 9.762c-.363-1.04-1.103-1.888-1.948-2.568.687-.565 1.338-1.217 1.685-2.05.663-1.485.362-3.145.432-4.717.056-1.685-.12-3.527-1.25-4.867C26.312.48 24.427.088 22.706 0H.85C.44.118.115.41 0 .82v26.14c.216.595.826.807 1.415.75 6.52-.006 13.04 0 19.56 0 1.827-.06 3.74-.25 5.35-1.198a5.134 5.134 0 0 0 2.32-2.815c.395-1.136.296-2.353.302-3.537-.012-1.376.127-2.804-.372-4.115M40.967 0h19.198c1.572.08 3.257.25 4.56 1.222 1.152.874 1.716 2.297 1.9 3.695.29 2.294.125 4.612.164 6.917-2.614.008-5.23-.002-7.843.002 0-1.708.015-3.422-.007-5.13-5.62-.036-11.242-.003-16.865-.016-.002 1.716.005 3.435-.002 5.154-2.608-.018-5.216 0-7.825-.01.042-2.18-.082-4.37.103-6.548.186-1.49.63-3.113 1.893-4.055C37.606.257 39.34.07 40.968 0m52.369 11.312c-.425.148-.867.25-1.32.235-3.995-.002-7.992-.006-11.99 0-.132-1.197-.037-2.4-.07-3.602.01-.46.01-.916.01-1.375 4.01-.014 8.02-.002 12.033-.005.448.04 1.002-.044 1.342.324.116 1.466.098 2.95-.005 4.42m9.8 14.405c-3.017-2.54-6.004-5.126-9.045-7.644 2.05-.045 4.444-.272 5.804-2.014 1.535-2.042 1.05-4.72 1.126-7.096-.067-2.23.345-4.68-.897-6.677C99.023.496 96.73.09 94.797 0h-21.66c-.68.118-.955.805-.91 1.426-.006 8.208-.003 16.415 0 24.622-.007.61.07 1.533.85 1.608 1.828.118 3.67.02 5.5.05.588.058 1.34-.192 1.36-.89.096-2.92-.07-5.85.083-8.77 1.29.025 2.582-.036 3.873.023.474.24.802.704 1.193 1.058 2.792 2.708 5.597 5.403 8.374 8.128.293.352.74.464 1.185.447 2.442.015 4.886-.006 7.33.007.493-.014 1.115.04 1.44-.42.385-.487.212-1.225-.277-1.575M107.292 0h6.452c.413.27.725.693.674 1.21.006 2.77 0 5.54 0 8.31 3.36-2.576 6.682-5.202 10.03-7.796.766-.573 1.48-1.227 2.3-1.723h8.98c.785.344.95 1.487.202 1.966-3.28 2.427-6.585 4.826-9.868 7.25-1.742 1.31-3.548 2.532-5.24 3.905 5.65 4.102 11.247 8.277 16.892 12.388.286.198.53.453.696.765v.76c-.25.33-.57.668-1.023.62-3.17-.01-6.342.056-9.507-.032-1.072-.566-1.956-1.436-2.942-2.136-3.5-2.663-7.01-5.312-10.504-7.985-.04 2.988.004 5.977-.02 8.966.055.602-.392 1.23-1.036 1.186-1.765.027-3.53-.005-5.296.012-.442-.012-.973.047-1.283-.34-.283-.277-.263-.697-.27-1.06.006-8.35 0-16.7.003-25.05a1.164 1.164 0 0 1 .76-1.213M34.328 22.18c-.144-1.99-.05-3.985-.078-5.98 2.604 0 5.208.005 7.81-.005.03 1.53.017 3.058.01 4.59 5.622 0 11.247.01 16.872-.004.01-1.527.012-3.053.008-4.578 2.592 0 5.19-.005 7.78 0 .124 1.446.04 2.9.065 4.347-.076 1.833-.176 3.864-1.416 5.336-1.295 1.525-3.45 1.732-5.32 1.815-5.43.016-10.856.004-16.285.01-1.624-.013-3.26.06-4.87-.194-1.173-.227-2.404-.607-3.223-1.532-.907-1.047-1.21-2.464-1.353-3.803"/></symbol><symbol viewbox="0 0 119.042 57.232" id="icon--logo-gazprom" class="icon icon--logo-gazprom"><path d="M36.768 37.418h7.556v2.47H40.73V57.23h-3.962V37.418zm7.647 19.812h3.88l.365-5.26h1.87l.37 5.26h3.874l-2.066-19.813H46.48L44.415 57.23zm4.387-7.436l.68-9.907h.227l.678 9.907h-1.586zm11.644.502v3.735c0 .505.39.65.62.65.37 0 .63-.307.63-.65v-4.61c0-.617-.113-1.3-1.59-1.3h-1.61v-2.175h1.675c1.122 0 1.527-.26 1.527-1.48v-3.93c0-.34-.26-.65-.633-.65-.227 0-.618.13-.618.65v3.233h-3.963v-2.81c0-1.38.163-3.54 2.942-3.54h3.28c2.777 0 2.956 2.16 2.956 3.54v3.167c0 2.16-1.51 2.745-2.694 2.696v.196c2.662-.065 2.695 1.98 2.695 2.68v3.995c0 1.398-.178 3.54-2.956 3.54h-3.28c-2.778 0-2.94-2.142-2.94-3.54v-3.394h3.962zm7.812-12.878h9.177v19.814H73.47V39.887h-1.248v17.345h-3.964V37.418zM80.033 57.23h3.96v-6.74h2.275c2.76 0 2.94-2.14 2.94-3.54v-5.993c0-1.38-.18-3.54-2.94-3.54h-6.235V57.23zm3.96-8.915v-8.428h.52c.425 0 .733.357.733.99v6.448c0 .634-.308.99-.732.99h-.52zm7.814 5.375c0 1.398.18 3.54 2.94 3.54h3.295c2.76 0 2.94-2.142 2.94-3.54V40.96c0-1.38-.18-3.54-2.94-3.54h-3.295c-2.76 0-2.94 2.16-2.94 3.54v12.73zm5.214.34c0 .343-.26.65-.633.65-.228 0-.618-.145-.618-.65V40.537c0-.518.39-.648.617-.648.374 0 .634.308.634.648V54.03zm16.856-16.612h5.165v19.814h-3.962V44.808h-.147l-2.046 12.424h-3.167l-2.03-12.424h-.145v12.424h-3.964V37.418h5.15l2.58 13.935 2.567-13.935zM31.28 19.342c-.044 2.03-.287 4.174-.596 5.458.112-2.21-.153-5.31-.66-7.748-.507-2.42-1.942-6.48-3.086-8.347-1.057 1.786-2.36 5.295-3.042 8.33-.685 3.04-.705 6.725-.705 7.83-.18-.926-.636-4.255-.507-7.585.108-2.745.75-5.586 1.103-6.886 1.343-4.337 2.866-7.113 3.152-7.552.285.44 2.2 3.865 3.196 7.455.988 3.59 1.19 7.032 1.147 9.045m-4.32 15.51c-.596-1.12-1.52-3.247-1.608-6.56-.024-3.185 1.255-5.928 1.63-6.497.33.57 1.432 2.955 1.564 6.22.09 3.184-.97 5.7-1.585 6.837m4.673-24.522C30.42 5.02 27.38.697 26.96 0c-.662.99-3.087 4.807-4.318 9.03-1.348 4.725-1.545 8.916-1.08 13.025.46 4.125 2.202 8.364 2.202 8.364.927 2.207 2.314 4.595 3.217 5.764 1.324-1.722 4.366-6.854 5.314-13.544.527-3.736.55-7-.66-12.31"/><path d="M29.02 37.418h-9.224v6.188c.008 0 .014-.017.023-.017a5.558 5.558 0 0 1 7.87 0c2.172 2.16 2.172 5.683 0 7.86-.01.015-.02.015-.03.032-.01 0-.02.016-.03.032a11.114 11.114 0 0 1-7.834 3.216c-2.845 0-5.69-1.072-7.86-3.248-3.827-3.817-4.28-9.744-1.364-14.064.394-.585.847-1.138 1.363-1.656 2.17-2.177 5.016-3.248 7.86-3.248V17.637C8.866 17.637 0 26.487 0 37.417c0 10.93 8.864 19.797 19.796 19.797 5.7 0 10.834-2.42 14.448-6.267v-13.53H29.02z"/></symbol><symbol viewbox="0 0 121.667 23.75" id="icon--logo-honeywell" class="icon icon--logo-honeywell"><path d="M10.426 8.063h-3.99V.808H.815v17.64H6.39v-7.95h4.036v8.04h5.576V.763h-5.576M27.62 5.554c-1.03-.404-2.227-.465-2.85-.465-.2 0-.325.005-.417.005-.293-.004-.74.02-1.34.127-.783.136-2.86.498-4.464 2.625-1.77 2.348-1.183 5.334-.96 6.194.36 1.39 1.12 2.488 2.465 3.56 1.49 1.185 3.676 1.312 4.547 1.312 1.52 0 2.96-.29 3.856-.774 1.497-.808 2.524-1.988 3.054-3.51.713-2.05.55-4.532-.41-6.18-.964-1.655-2.007-2.314-3.482-2.894zm-1.196 8.88c-.037.42-.22 1.843-1.013 2.51-.608.513-1.405.322-1.904-.427-.493-.742-.693-1.423-.654-3.717.01-.5.01-.965.01-1.397.002-1.496.004-2.576.32-3.268.364-.792.76-1.234 1.18-1.313.092-.02.18-.027.268-.027.788 0 1.25.752 1.5 1.382.143.36.3 1.095.31 2.08.018 1.715.02 3.755-.016 4.178zm18.229-8.858a5.26 5.26 0 0 0-2.067-.416 6.184 6.184 0 0 0-2.6.596c-.556.265-1.098.72-1.532 1.32V5.52h-5.257v12.94l5.232.003-.01-9.285c.024-.134.612-.77 1.24-1.107.222-.118.477-.18.737-.18.438 0 .775.168.914.335.38.456.38.964.378 1.268v8.966h5.167l-.008-9.806c-.03-.515-.278-2.263-2.194-3.078zM62.25 14.7l.003-.11-2.26.01-.114.086-.015.09c-.24 1.51-1.54 2.023-2.59 2.19-1.577.245-2.744-.064-3.372-.9-.184-.245-.272-.73-.274-.73v-2.482l8.996.024.03-.052c.037-.06.16-2.456-.79-4.267-1.178-2.242-3.07-3.31-6.135-3.467-2.94-.15-5.68 1.295-6.782 3.514-1.05 2.118-.84 4.56-.442 5.683.313.884.834 2.033 2.098 3.085 1.264 1.053 2.844 1.564 4.832 1.564.475 0 .967-.03 1.55-.09 1.88-.19 3.46-1.127 4.312-1.937.916-.87.95-2.158.953-2.213zm-4.904-3.735H53.62c-.004-.377-.008-1.667.11-2.33.14-.783.57-1.4.933-1.664.465-.334 1.395-.297 1.813.13a2.5 2.5 0 0 1 .678 1.164c.074.242.207.976.197 1.658-.007.615-.007.903-.004 1.043zm44.021-5.872c-2.95-.144-5.683 1.295-6.782 3.514-1.053 2.118-.84 4.56-.442 5.683.312.883.832 2.032 2.097 3.085s2.845 1.564 4.833 1.564c.475 0 .967-.03 1.55-.09 1.882-.192 3.46-1.127 4.312-1.937.917-.87.952-2.157.954-2.212v-.108l-2.26-.003-.112.085-.015.09c-.24 1.52-1.54 2.035-2.59 2.2-.35.056-.684.084-.993.084-.75 0-1.773-.17-2.38-.984-.184-.244-.27-.73-.272-.73v-2.48l8.982.023.03-.053c.038-.062.193-2.417-.777-4.267-1.18-2.243-3.072-3.31-6.136-3.467zm1.615 5.872h-3.728c-.004-.377-.007-1.668.11-2.33.142-.784.57-1.4.935-1.664.463-.333 1.394-.295 1.812.13.477.486.596.886.68 1.164.072.24.205.974.195 1.658-.008.615-.008.903-.005 1.043z"/><path d="M91.85 5.523l-1.852 6.76-2.072-6.76h-4.55l-1.87 6.868-2.125-6.85-7.03-.018-2.42 5.866-2.264-5.866H61.97l5.125 13.125s-.004.124-.103.467c-.12.418-.475 1.29-1.053 1.9-.358.38-.73.464-.983.467.093-.11.207-.27.293-.472.18-.416.105-1.115-.18-1.7-.35-.726-1.218-1.09-2.38-.873-1.34.257-1.82 1.47-1.698 2.49.15 1.264 1.02 2.045 2.583 2.322.295.052.582.08.854.08 1.304 0 2.163-.605 2.897-1.256.947-.84 1.696-2.91 1.726-2.993l5.175-12.685 3.702 12.08h4.39l1.96-7.15 2.213 7.15h4.283L94.338 5.52H91.85zM109.583.77h5.033v17.713h-5.033zm6.32.02h5.033V18.5h-5.033z"/></symbol><symbol viewbox="0 0 233.858 41.721" id="icon--logo-johnson" class="icon icon--logo-johnson"><path d="M8.538 23.56c.465 2.545.86 5.12.86 7.386 0 4.867-1.633 8.36-3.975 8.36-1.893 0-1.893-2.043-1.893-3.418 0-4.17 2.135-8.557 5.006-12.33h.002zm-.188-.96a42.985 42.985 0 0 0-1.474 1.965h-.003c-2.308-2.26-4.16-7.115-4.16-11.08C2.712 3.64 9.25.855 9.584.855c.483 0 .333.11.333.78 0 1.004-2.822 5.684-2.822 12.26 0 2.308.65 5.434 1.26 8.675l-.006.03zm17.648-6.095c-1.303-.076-2.482-.334-2.482-1.16 0-.3.224-.52.595-.52.867 0 1.493.74 1.89 1.676v.005zm8.624-4.314c-.024-2.75-.23-10.48 1.86-10.48.816 0 .928.89.928 2.45 0 3.3-1.213 6.005-2.782 8.034l-.006-.002zm35.73 9c.21.79.344 1.64.344 2.474 0 .707-.37 1.227-.78 1.227-.445 0-.594-.445-.594-1.187 0-.735.38-1.604 1.01-2.514h.02zm16.88-4.997a4.928 4.928 0 0 1-1.044.117c-1.003 0-1.598-.41-1.598-1.08 0-.295.335-.666.706-.666.802 0 1.47.706 1.944 1.617l-.006.013zm31.815 6.275l.014-.023c-.645-1.574-1.78-3.09-4.082-3.09-.63 0-.965.56-.965 1.228 0 1.226 1.932 2.005 3.715 2.005.372 0 .82-.045 1.32-.12m14.28 1.1h-.01c-2.87 3.768-5 8.155-5 12.32 0 1.375 0 3.42 1.893 3.42 2.34 0 3.976-3.495 3.976-8.36 0-2.264-.395-4.835-.86-7.38m17.454-7.062l.005-.01c-.398-.933-1.023-1.672-1.887-1.672-.373 0-.596.22-.596.52 0 .825 1.176 1.084 2.478 1.16m8.628-4.3c1.573-2.03 2.788-4.74 2.788-8.042 0-1.56-.11-2.452-.928-2.452-2.095 0-1.885 7.755-1.86 10.494m35.728 8.974h-.01c-.633.91-1.018 1.785-1.018 2.525 0 .743.15 1.19.595 1.19.408 0 .78-.52.78-1.23 0-.84-.135-1.69-.347-2.485m-63.993 4.136c-.922-.7-1.778-1.903-3.087-2.8-1.104-.756-4.014.064-6.54.52l-.004.005c-.22 1.454-.72 2.892-1.22 2.892-.327 0-.47-1.15-.88-2.49l-.026-.016c-1.128.202-2.083.35-2.66.35-1.748 0-5.76-.778-5.76-3.418 0-1.484 1.672-2.08 3.27-2.08 1.82 0 4.717 1.3 5.424 2.713.185-2.526-1.635-3.9-1.635-4.308 0-.41 1.97-1.153 2.155-1.153.78 0 1.45 3.567 1.45 6.093 0 .12-.005.243-.01.37 2-.4 4.15-.822 5.545-.632-1.338-1.892-2.342-4.494-2.342-8.096 0-9.14 9.102-13.264 10.515-13.264.63 0 .78.148.78.52 0 .818-1.19 1.635-1.19 7.876 0 4.318.488 8.007.9 11.128 3.627-3.773 7.477-6.373 9.838-6.373.072 0 .11.15.11.3 0 .26-2.38 1.374-2.376 4.94-.002 2.786 1.706 5.313 3.936 5.313 2.526 0 3.976-2.675 3.976-4.644 0-.39-.046-.842-.14-1.304l-.003-.002c-3.53-.076-4.65-1.408-4.65-2.67 0-.855.854-1.857 1.968-1.857 1.338 0 3.218 1.02 3.92 3.31.246 0 .477-.003.687-.003.764 0 2.098-.545 3.514-1.588l.002-.01c-.036-1.52-.062-3.003-.062-4.163 0-5.312 1.783-10.14 4.828-10.14 1.56 0 2.378 1.3 2.378 2.97 0 3.57-1.78 7.34-4.338 10.088l-.012.028c-.025 4.54-.164 7.013.487 7.013.78 0 3.23-7.913 6.354-7.913 3.27 0 .593 10.105 1.968 10.105 1.672 0 5.497-10.254 8.06-10.254 3.567 0 1.117 8.58 2.342 8.58 1.263 0 3.156-8.58 6.465-8.58 4.196 0 .26 10.923 2.415 10.923 1.633 0 5.793-11.33 6.723-11.33.742 0-.37.892 2.488 4.978.122.17.232.35.334.528l.013.002c2.96-2.73 6.908-5.1 9.795-5.1.522 0 .817.076.817.447 0 .854-2.564 1.56-2.564 5.795 0 2.6 1.785 4.718 3.79 4.718 2.563 0 3.902-2.564 3.902-4.532 0-.5-.105-1.133-.3-1.763l-.018-.007a6.243 6.243 0 0 1-1.69.247c-2.19 0-3.12-1.56-3.12-2.712 0-.854.82-1.672 1.894-1.672 1.488 0 3.025.86 3.883 2.534l.007.002c2.323-1.003 4.45-2.944 5.882-2.944 3.53 0 1.524 7.654 2.34 7.654.893 0 3.605-7.95 6.428-7.95 2.228 0 2.043 2.97 2.043 4.31 0 3.044-.706 7.167.41 7.167.78 0 2.75-3.23 3.008-3.23.262 0 .298.075.298.41 0 .63-3.195 5.42-4.94 5.42-2.527 0-2.303-3.86-2.303-5.086 0-.966.296-5.945-.447-5.945-.556 0-2.006 3.23-3.342 5.61-1.374 2.414-2.044 5.126-3.418 5.126-1.82 0-1.45-2.527-1.45-4.977 0-3.272.41-6.43-.63-6.43-.48 0-1.767 1.133-3.462 1.934l-.002.006c.17.604.27 1.282.27 2.035 0 2.08-1.078 7.43-6.095 7.43-3.565 0-6.354-2.786-6.354-6.428 0-3.38 1.895-4.42 2.974-5.608-1.85.307-4.875 2.19-7.215 4.355l-.006.022c.565 1.443.607 2.882.607 3.387 0 2.415-1.524 4.086-3.084 4.086-1.04 0-2.08-.67-2.08-2.006 0-1.05.74-2.457 1.92-3.923v-.01c-.594-1.613-1.434-2.79-1.884-2.79-.928 0-3.64 8.73-7.058 8.73-3.753 0-1.153-10.625-2.415-10.625-1.225 0-4.83 10.625-6.91 10.625-2.934 0-.297-10.44-1.598-10.44-1.67 0-5.536 10.44-8.136 10.44-3.677 0-.927-10.29-2.45-10.29-.82 0-2.157 2.786-3.42 5.57-1.08 2.23-1.71 4.57-2.86 4.57-1.077 0-1.3-.41-1.302-3.863.002-1.096-.07-3.508-.134-6.003l-.005-.005c-1.274.83-2.626 1.397-3.986 1.607l-.005.007c.028.264.045.54.045.825 0 2.49-1.003 7.727-6.13 7.727-3.864 0-5.982-2.935-5.982-6.686 0-2.004.968-3.343 1.895-4.457-2.028 1.22-4.346 3.1-6.508 5.376l-.007.032c.24 1.847.425 3.484.425 4.92 0 10.956-4.793 16.307-7.357 16.307-1.598 0-2.453-2.12-2.453-4.273 0-3.81 1.905-8.17 4.575-12.134m.515-.746c.466-.663.953-1.31 1.455-1.94l.026-.06c-.61-3.24-1.26-6.365-1.26-8.673 0-6.576 2.862-11.256 2.862-12.26 0-.668.113-.78-.37-.78-.335 0-6.874 2.787-6.874 12.63 0 3.97 1.85 8.827 4.162 11.083m80.36-8.375l.006-.01c-.47-.913-1.14-1.62-1.944-1.62-.37 0-.706.372-.706.67 0 .667.632 1.077 1.6 1.077.35 0 .697-.043 1.045-.118m-194.337-1.11c-.928 1.115-1.93 2.454-1.93 4.46 0 3.75 2.153 6.685 6.017 6.685 5.127 0 6.13-5.238 6.13-7.728 0-.29-.015-.567-.047-.83v-.003c1.36-.208 2.718-.778 3.993-1.608l.005.003c.064 2.493.136 4.908.136 6.005-.037 3.453.223 3.863 1.3 3.863 1.152 0 1.783-2.34 2.86-4.57 1.263-2.784 2.6-5.57 3.418-5.57 1.524 0-1.226 10.29 2.453 10.29 2.6 0 6.464-10.44 8.136-10.44 1.3 0-1.34 10.44 1.56 10.44 2.116 0 5.72-10.625 6.946-10.625 1.262 0-1.338 10.625 2.414 10.625 3.38 0 6.13-8.73 7.06-8.73.445 0 1.282 1.17 1.878 2.77l-.005.043c-1.174 1.462-1.91 2.863-1.91 3.91 0 1.338 1.04 2.007 2.08 2.007 1.56 0 3.082-1.67 3.082-4.086 0-.505-.043-1.95-.61-3.39l.003-.016c2.335-2.165 5.354-4.05 7.182-4.36-1.04 1.19-2.935 2.23-2.935 5.61 0 3.64 2.786 6.428 6.352 6.428 5.016 0 6.094-5.35 6.094-7.43 0-.758-.1-1.442-.27-2.05l-.007.008c1.702-.8 2.99-1.934 3.47-1.934 1.04 0 .632 3.158.632 6.428 0 2.45-.37 4.98 1.45 4.98 1.374 0 2.042-2.714 3.417-5.13 1.336-2.376 2.785-5.61 3.342-5.61.743 0 .447 4.98.447 5.946 0 1.225-.224 5.088 2.3 5.088 1.71 0 4.905-4.793 4.905-5.423 0-.335 0-.41-.26-.41s-2.23 3.232-3.01 3.232c-1.114 0-.408-4.124-.408-7.17 0-1.337.187-4.31-2.043-4.31-2.823 0-5.573 7.952-6.427 7.952-.817-.003 1.19-7.654-2.34-7.654-1.436 0-3.57 1.95-5.897 2.95l.014.004c-.858-1.68-2.397-2.546-3.888-2.546-1.077 0-1.894.817-1.894 1.672 0 1.153.93 2.713 3.083 2.713.594 0 1.17-.095 1.72-.25l.02.01c.197.63.304 1.262.304 1.764 0 1.967-1.34 4.53-3.903 4.53-2.006 0-3.788-2.117-3.788-4.717 0-4.235 2.562-4.94 2.562-5.795 0-.37-.297-.447-.855-.447-2.866 0-6.803 2.37-9.76 5.1l-.012-.002a5.48 5.48 0 0 0-.333-.528c-2.86-4.086-1.746-4.977-2.488-4.977-.93 0-5.09 11.33-6.725 11.33-2.155 0 1.782-10.922-2.415-10.922-3.306 0-5.2 8.582-6.465 8.583-1.225 0 1.226-8.582-2.34-8.582-2.563 0-6.39 10.254-8.06 10.254-1.413 0 1.3-10.105-1.97-10.105-3.12 0-5.573 7.914-6.354 7.913-.65 0-.51-2.47-.486-7.007l.01-.032c2.56-2.748 4.34-6.515 4.34-10.085 0-1.672-.816-2.973-2.377-2.973-3.047 0-4.83 4.83-4.83 10.14 0 1.16.027 2.64.062 4.16l-.01.018c-1.413 1.038-2.745 1.583-3.506 1.583l-.69.002.002.002c-.703-2.29-2.59-3.31-3.958-3.31-1.077 0-1.93 1.002-1.93 1.857 0 1.26 1.117 2.592 4.643 2.67l.01.01c.09.456.138.907.138 1.294 0 1.97-1.45 4.645-4.012 4.645-2.23 0-3.9-2.527-3.9-5.313 0-3.566 2.377-4.68 2.377-4.94 0-.15-.037-.3-.112-.3-2.358 0-6.206 2.6-9.83 6.37l-.008-.003c-.41-3.12-.897-6.808-.897-11.12 0-6.24 1.15-7.06 1.15-7.876 0-.372-.11-.52-.742-.52C9.14 0 0 4.125 0 13.265c0 7.03 3.87 10.152 6.36 12.048-2.67 3.967-4.576 8.327-4.576 12.136 0 2.154.854 4.273 2.452 4.273 2.525 0 7.355-5.35 7.355-16.308 0-1.44-.185-3.08-.424-4.935l.002-.006c2.165-2.282 4.484-4.165 6.515-5.385"/></symbol><symbol viewbox="0 0 121.128 19.836" id="icon--logo-nokia" class="icon icon--logo-nokia"><path d="M21.73 14.807L21.754.28l5.66-.026.024 19.355h-9.854L5.76 5.003l-.024 14.553-5.685.052L0 .28.076.253H9.93l11.8 14.553zM90.96.28l.05 19.33h-6.04L84.946.304l.05-.05c1.997 0 3.994-.028 5.965.024M63.9 9.602l.025.025.73-.606 9.68-8.74h8.034L71.3 9.652l.025.1 12.457 9.804-8.768.05L63.95 9.704l-.05.076v9.828h-6.04V.278h6.04v9.324zM36.586 4.827c-.505.1-1.137.303-1.214.884 0 2.88-.075 5.812.052 8.667.176.48.707.43 1.086.555l10.915.025c.935-.076 2.047.153 2.552-.782l.025-8.16-.076-.633c-.15-.378-.53-.43-.86-.53l-12.48-.025zM48.436.05c2.5.1 5.205.28 6.544 2.755.304.68.455 1.415.43 2.25l-.025 10.51c-.077 1.415-1.063 2.652-2.274 3.335-2.626 1.137-5.81.86-8.868.934-3.613-.05-7.327.177-10.688-.43-1.49-.227-3.083-1.464-3.487-2.955l-.202-1.214.05-11.14c.05-1.417 1.29-2.655 2.477-3.287C34.337 0 36.687.1 38.936 0l9.5.05zm58.214 5.08l-3.715 6.898h7.43c-1.24-2.3-2.48-4.624-3.716-6.898m14.478 14.402v.077h-6.67c-.607-1.116-1.214-2.175-1.77-3.286l-.127-.05h-11.85l-1.817 3.284-6.745.05L102.784.28h7.807l10.538 19.254z"/></symbol><symbol viewbox="0 0 162.966 31.552" id="icon--logo-openbank" class="icon icon--logo-openbank"><path d="M119.47 9.014h11.877v2.647h-.86s-.144-1.357-1.504-1.357h-2.07v12.235h-2.938V10.303h-2.145c-1.142 0-1.43.93-1.5 1.358h-.86V9.015zm24.818 0h2.15v13.524h-2.867v-9.445l-7.077 9.445h-2.15V11.52c0-1.575-1.358-1.79-1.358-1.79v-.716h4.22v9.517l7.083-9.516zM82.2 22.538h-3.718l-2.65-5.01s-.786-1.5-1.645-1.5h-1.074v6.51H70.18v-11.02c0-1.572-1.432-1.715-1.432-1.715v-.787h4.365v5.65h1.29s.858-.07 1.574-1.217c2.29-3.72 2.003-4.434 3.006-4.434h2.858v.93c-2 0-2.574 4.078-4.505 5.365.933.358 1.287 1.22 3.362 5.01 0 0 .5 1.288 1.504 1.288v.93zm79.908-2.935c-1.36 1.86-3.363 3.152-6.01 3.152-3.58 0-7.015-2.793-7.015-6.444v-.784c0-3.935 3.15-6.728 7.014-6.728 3.865 0 6.87 3.15 6.87 6.943H152.59v2.22c0 1.93 1.573 3.503 3.865 3.503 2.004 0 3.36-.856 4.438-2.003l1.213.143zm-9.516-5.222h7.01v-.714a3.51 3.51 0 0 0-3.505-3.506 3.511 3.511 0 0 0-3.505 3.506v.715zm-57.569 3.506c0 1.716-1.217 3.36-3.076 3.435h-.284c-1.646 0-3.077-1.216-3.29-2.505V13.02c.14-1.358 1.5-2.86 3.29-2.86h.57s2.718.142 2.79 3.435v4.292zm-2.72-9.09c-1.644 0-3.217.716-3.93 1.72V9.015h-4.295V9.8s1.36.217 1.36 1.72v17.175h2.934v-7.59c1.36 1.575 3.147 1.648 3.72 1.648 3.79-.073 6.364-3.006 6.364-6.656v-.86c0-3.932-2.43-6.44-6.152-6.44m-40.86 9.017c0 1.93-1.5 3.65-3.72 3.65s-3.65-1.72-3.65-3.65V13.52c0-1.93 1.645-3.434 3.65-3.434 2.22 0 3.72 1.573 3.72 3.508v4.22zm-3.72-9.016c-5.08 0-7.156 3.936-7.156 6.515v1.142c0 3.004 2.935 6.298 7.157 6.298 3.937 0 7.228-2.934 7.228-6.37v-.932c0-3.43-2.72-6.652-7.228-6.652m69.742.215h-4.292V9.8s1.428.216 1.428 1.79v10.95h2.864V9.014zM104.872 21.18v-5.653h2.505c1.357 0 2.43 1.07 2.43 2.647v.575c0 1.284-1.214 2.43-2.504 2.43h-2.43zm0-7.01V9.015h-4.293v.787s1.287.143 1.287 1.716v11.02h6.655c2.574 0 4.434-1.577 4.434-3.79v-.646c0-2.437-1.788-3.935-4.58-3.935h-3.504zM55.453 9.014H67.33v2.647h-.86s-.143-1.357-1.506-1.357h-2.072v12.235H59.96V10.303h-2.15c-1.143 0-1.43.93-1.5 1.358h-.86V9.015zM26.46 16.57c0 3.836-1.996 7.28-5.215 8.984l-.74.35c-.24.11-.51.174-.767.174-.5 0-.9-.212-1.138-.6-.19-.323-.24-.67-.17-1.065.114-.55.543-.825.67-.894 1.898-.865 3.118-2.8 3.118-4.942v-5.6c0-2.143-1.215-4.077-3.093-4.928-.005-.005-.566-.272-.694-.91-.07-.397-.02-.745.17-1.064.24-.383.638-.6 1.138-.6.258 0 .527.058.768.173 0 0 .694.326.723.338 3.23 1.713 5.23 5.16 5.23 8.996v1.585zm-14.005 6.95c.126.068.56.344.67.893.078.396.026.742-.17 1.065-.234.388-.634.6-1.136.6-.26 0-.524-.063-.77-.174l-.74-.35c-3.22-1.704-5.215-5.148-5.215-8.985v-1.586c0-3.835 2.004-7.283 5.23-8.996.032-.012.724-.34.724-.34.246-.114.51-.173.766-.173.503 0 .905.218 1.14.6.195.32.247.668.17 1.065-.127.638-.686.905-.692.91-1.878.85-3.09 2.785-3.09 4.93v5.598c0 2.142 1.214 4.077 3.11 4.94M15.78 0C7.065 0 0 7.064 0 15.775c0 8.714 7.065 15.778 15.778 15.778 8.713 0 15.778-7.064 15.778-15.778C31.556 7.065 24.49 0 15.778 0"/></symbol><symbol viewbox="0 0 144.958 39.062" id="icon--logo-raiffeisen" class="icon icon--logo-raiffeisen"><path d="M.822 38.24H37.99V1.072H.822V38.24zm37.99.822H0V.248h38.813v38.814z"/><path d="M3.41 30.32l4.667 4.76 10.94-11.1 11.306 11.33 4.737-4.692-11.19-11.192 2.15-2.082v-4.44l1.35-1.145v3.48l1.74 1.418 5.195-5.195 1.67 1.28c.985-3.638-4.714-11.9-9.428-7.323l-5.492 5.446 1.12 1.352-2.792 2.722-2.7-2.654 1.42-1.282-6.02-5.814c-4.53-3.73-9.177 1.948-9.337 7.485L4.393 11.3l5.058 5.45 1.808-1.51v-3.342l1.123.846v4.37l2.198 2.197L3.41 30.32zM49.525 8.51h-1.42V5.213h1.42c1.42.138 1.945 2.93 0 3.297m2.54 2.38c4.897-2.38 3.066-8.88-2.083-8.95H44.08v14.922h4.025v-4.85l3.434 4.85h4.76l-4.235-5.972zm10.642 2.998c-1.305 0-2.38-1.008-2.38-2.243 0-1.235 1.075-2.242 2.38-2.242 1.327 0 2.402 1.007 2.402 2.242s-1.076 2.243-2.403 2.243m6.087 2.975l-.022-10.367h-3.937v.572a5.182 5.182 0 0 0-2.975-.962c-2.93 0-5.332 2.495-5.332 5.54 0 3.044 2.402 5.515 5.332 5.515 1.1 0 2.128-.342 2.975-.937l-.022.64h3.98zm2.085-10.367h4.187v10.366h-4.187V6.496zM72.982.568c1.213 0 2.198 1.007 2.198 2.22 0 1.213-.985 2.22-2.198 2.22a2.222 2.222 0 0 1-2.22-2.22c0-1.213.984-2.22 2.22-2.22m31.788 5.928h4.19v10.366h-4.19V6.496zm2.083-5.928a2.221 2.221 0 0 1 2.22 2.22c0 1.213-.983 2.22-2.22 2.22-1.212 0-2.197-1.007-2.197-2.22 0-1.213.985-2.22 2.197-2.22M75.844 6.496V9.79h1.44v7.072h4.052v-7.07h3.8v7.07h4.186V9.746h2.61V6.542h-2.723V4.23c-.07-.846 1.92-1.19 2.607-.504V.34c-3.845-1.214-6.957.96-6.935 4.325v1.83h-3.57V4.23c-.046-.846 1.694-1.19 2.702-.504V.34c-3.342-.984-6.913.64-6.89 4.302v1.83l-1.28.024zM99.53 9.883h-2.975c.046-1.26 2.792-1.26 2.975 0m-3.502 2.45h7.69c0-4.212-2.243-6.204-5.812-6.204-3.57 0-5.814 2.518-5.814 5.584 0 3.067 2.61 5.47 5.814 5.447 3.59-.022 4.92-1.51 5.697-3.683h-3.638c-1.648 2.105-4.052.57-3.937-1.145m32.018-2.449h-2.975c.046-1.26 2.793-1.26 2.976 0m-3.5 2.45h7.69c0-4.212-2.22-6.204-5.815-6.204-3.57 0-5.813 2.518-5.813 5.584 0 3.067 2.61 5.47 5.814 5.447 3.616-.022 4.945-1.51 5.722-3.683h-3.662c-1.647 2.105-4.05.57-3.935-1.145"/><path d="M119.51 6.702l-1.237 2.518c-1.557-.48-3.067-.39-3.02.045.045.275-.207.755 2.22 1.1 3.616.57 3.317 7.3-2.747 6.796-1.67-.114-3.02-.548-4.143-1.213l1.35-2.7c1.9.938 3.73 1.487 3.87.55.158-1.168-1.993-.756-3.297-1.74-2.335-1.442-1.007-5.905 2.814-5.95 1.35-.092 2.748.138 4.19.595m14.326-.207v10.366h3.912v-6.338c.116-1.58 3.228-1.854 3.25 0v6.338h3.96v-6.498c-.09-3.64-3.912-5.402-7.37-3.09v-.778h-3.752zM50.577 34.92H48.86l.527-2.54h1.785c1.12 0 1.35 2.633-.595 2.54m-.32-8.055h.686c1.9 0 .984 2.173-.595 2.082l-.526-.023.435-2.06zm4.416 3.363c3.044-2.814 1.488-7.05-1.783-7.095l-6.502.07-2.608 15.38h7.392c5.013 0 7.073-6.226 3.5-8.355m8.973 2.449l1.9-4.05.892 4.05h-2.792zm4.92-9.383h-4.234l-7.985 15.31h4.485l1.35-2.7h5.08l.756 2.746h4.142l-3.592-15.356zm5.012 15.356h4.142l1.052-9.634 5.927 9.588h4.44l1.853-15.402H86.85l-1.166 9.635-5.927-9.68h-4.28l-1.9 15.494zm20.391-15.492l-2.906 15.446h4.37l1.17-5.766 3.912 5.766h5.745l-5.61-8.1 7.166-7.37h-5.562l-4.898 5.446.778-5.447-4.166.025z"/></symbol><symbol viewbox="0 0 110.266 48.997" id="icon--logo-rzhd" class="icon icon--logo-rzhd"><path d="M78.093 4.335v1.78h15.33c1.01 0 2.55 0 3.568 1.026 1.02 1.02 1.02 2.55 1.02 3.577V26.03c0 1.014 0 2.554-1.02 3.57-1.017 1.02-2.556 1.02-3.568 1.02h-7.405c-1.278 0-2.94 0-3.575-1.406-.64-1.4.254-2.678 1.02-3.7l9.96-13.26h-15.33l-6.116 8.163c-1.023 1.367-1.913 2.55-1.913 4.08 0 1.532.82 2.637 1.913 4.087l1.537 2.036c1.52 2.04 3.058 4.086 5.1 5.106 2.045 1.018 4.464 1.018 7.786 1.018h6.64c3.824 0 9.573 0 13.398-3.823 3.828-3.83 3.828-9.444 3.828-11.49v-6.124c0-2.04 0-7.656-3.828-11.48C102.613 0 96.864 0 93.038 0H82.443c-1.02 0-2.298 0-3.314 1.016-1.035 1.023-1.035 2.295-1.035 3.32"/><path d="M59.724 12.254h15.31L56.66 36.75H41.347l18.377-24.496zM0 16.58c0-1.016 0-2.292 1.02-3.316 1.024-1.01 2.294-1.01 3.32-1.01h25.65c3.316 0 5.745 0 7.783 1.01 2.043 1.024 3.573 3.066 5.113 5.105l1.523 2.047c1.085 1.447 1.918 2.55 1.918 4.08 0 1.532-.888 2.717-1.92 4.087l-6.123 8.168H22.968l9.955-13.275c.77-1.017 1.662-2.294 1.024-3.704-.64-1.404-2.298-1.404-3.58-1.404H18.378v30.627H6.125V18.37H0v-1.79"/></symbol><symbol viewbox="0 0 121.575 33.212" id="icon--logo-samsung" class="icon icon--logo-samsung"><path d="M94.993 20.884h-3.61l-3.607-6.272v6.272H84.48v-9.927h4.038l3.396 5.832v-5.836h3.08v9.93zM76 20.88c-4.476 0-4.468-2.35-4.468-2.35l-.007-7.573h3.617v7.312s-.014.78.85.78c.863 0 .85-.78.85-.78v-7.313h3.555v7.572s.08 2.35-4.396 2.35m-12.323.322c-3.002 0-4.39-1.122-4.39-1.996v-1.6h3.207v1.06c0 .276.435.534 1.11.534.678 0 1.18-.508.71-1.245-1.193-.52-4.18-2.323-4.18-2.323s-.87-.565-.87-2.377c0-1.813 1.216-2.638 4.48-2.61 3.265.026 3.822 1.446 3.822 1.446l-.024 1.64h-3.088v-.77c-.078-.258-.832-.855-1.625-.053-.21.567-.14.87.422 1.158.565.29 3.677 1.507 4.102 2.03.425.52.57 1.044.57 2.262 0 1.742-1.243 2.845-4.247 2.845m-8.386-.318h-2.865v-7.397l-1.91 7.397h-3.293l-1.802-7.397v7.397h-2.994l.02-9.922h5.31l1.166 5.397 1.274-5.398h5.095v9.922zm-20.063 0L34.06 13.15l-1.593 7.734-3.405-.003 2.24-9.908h5.412l2.017 9.91h-3.503zm86.27-12.723C119.82.267 91.28-2.353 57.75 2.31c-14.26 1.985-27.126 4.967-37.076 8.346.36-.026.753-.038 1.185-.035 3.264.03 3.82 1.45 3.82 1.45l-.024 1.637H22.57v-.768c-.08-.26-.83-.86-1.626-.056-.21.566-.14.87.425 1.16.56.287 3.674 1.505 4.1 2.027.424.524.57 1.046.57 2.264 0 1.74-1.245 2.846-4.248 2.846s-4.39-1.123-4.39-1.996v-1.6h3.205v1.06c0 .276.437.533 1.113.533.676 0 1.177-.507.71-1.245-1.195-.522-4.18-2.323-4.18-2.323s-.87-.565-.87-2.38c0-.663.164-1.193.53-1.598C6.133 15.964-.82 20.832.078 25.05c1.677 7.895 30.218 10.515 63.747 5.85 16.27-2.263 30.726-5.825 41.105-9.795-.423.05-.91.08-1.486.08-4.304 0-4.31-1.636-4.31-1.636v-7.025s-.017-1.905 4.31-1.905 3.97 1.88 3.97 1.88v1.478h-3.078l-.022-.84s.062-.64-.827-.64c-.89 0-.956.64-.956.64v5.366s-.184.67.914.67c.69 0 .64-.496.64-.496v-1.802h-.637v-1.45h3.968v4.115s.06.313-.223.665c9.615-3.97 15.108-8.267 14.305-12.044"/></symbol><symbol viewbox="0 0 199.935 37.367" id="icon--logo-sber" class="icon icon--logo-sber"><path d="M49.19 31.85v-1.076h150.716v2.023H49.19v-.946zm15.092-8.59c-.336.15-.695.284-1.08.4-.385.12-.822.214-1.316.284-.494.07-1.067.1-1.716.1-1.263 0-2.294-.235-3.094-.707a5.05 5.05 0 0 1-1.877-1.953c-.455-.828-.768-1.804-.935-2.93a25.175 25.175 0 0 1-.25-3.67c0-1.025.047-2.067.147-3.122.097-1.055.334-2.002.71-2.84a5.04 5.04 0 0 1 1.658-2.057c.73-.535 1.726-.796 2.987-.796 1.147 0 2.135.306 2.974.927.84.622 1.36 1.564 1.557 2.827h1.3V5.61a7.554 7.554 0 0 0-1.316-.46c-.5-.128-1.03-.226-1.583-.295a34.233 34.233 0 0 0-1.628-.163 20.523 20.523 0 0 0-1.45-.057c-1.815 0-3.363.246-4.645.74-1.283.492-2.333 1.207-3.154 2.144-.818.935-1.42 2.08-1.803 3.432-.385 1.352-.577 2.887-.577 4.6 0 1.62.192 3.068.577 4.352.383 1.285.977 2.37 1.773 3.27.802.897 1.812 1.582 3.036 2.056 1.223.474 2.683.71 4.38.71.85 0 1.628-.058 2.336-.178.712-.117 1.358-.27 1.94-.46.582-.187 1.1-.39 1.554-.605.454-.215.848-.422 1.183-.62l-.654-1.27c-.352.154-.7.31-1.034.454m17.948-9.526c-.72-.502-1.66-.868-2.81-1.097-1.154-.225-2.56-.337-4.22-.337h-1.716V7.386c0-.534.108-.87.328-1.006.218-.14.67-.208 1.362-.208h2.486c.766 0 1.394.03 1.877.09.483.06.885.198 1.2.414.315.216.57.543.77.978.197.433.393 1.012.59 1.743h1.095V4.9H67.926v.665c.08.02.163.06.38.117.22.06.385.152.504.268.12.117.192.286.22.5.03.214.045.49.046.83v15.84c0 .34-.016.617-.045.83-.028.216-.1.382-.22.5s-.288.21-.504.267c-.216.06-.3.1-.382.12v.663h7.75c1.065 0 2.116-.06 3.15-.18 1.038-.114 1.962-.408 2.768-.872.813-.462 1.46-1.155 1.955-2.07.493-.92.742-2.177.742-3.775 0-1.144-.165-2.116-.49-2.914a4.342 4.342 0 0 0-1.57-1.952M79.3 21.71c-.226.71-.526 1.25-.9 1.628a2.62 2.62 0 0 1-1.29.722 6.7 6.7 0 0 1-1.494.165c-.495 0-.88-.034-1.154-.102-.276-.073-.488-.185-.635-.343a1.138 1.138 0 0 1-.283-.62 6.558 6.558 0 0 1-.06-.977V13.57h1.778c1.597 0 2.727.41 3.39 1.228.658.82.99 2.157.99 4.01 0 1.226-.116 2.19-.34 2.9m20.327.92c-.145.473-.36.828-.635 1.063-.276.238-.666.386-1.17.445-.5.058-1.2.09-2.085.09-.83 0-1.476-.032-1.94-.09-.463-.06-.813-.167-1.05-.326a1.029 1.029 0 0 1-.443-.694 6.295 6.295 0 0 1-.088-1.17v-6.482H95c.237 0 .516.01.844.03.325.02.658.047 1.002.09.348.04.678.102.995.192.316.09.584.203.8.34V13.48c-.216.14-.484.248-.8.326a8.662 8.662 0 0 1-.994.193 8.85 8.85 0 0 1-1.002.09c-.328.01-.607.016-.845.016h-2.78V7.27c0-.456.064-.752.19-.89.127-.14.4-.207.814-.207h2.22c.77 0 1.393.03 1.88.09.482.06.882.197 1.196.414.316.216.572.542.77.977.2.434.395 1.013.592 1.744h1.097V4.902H86.683v.663c.082.02.166.06.382.118.216.06.385.15.504.267.12.118.194.287.224.502.027.217.043.505.043.86v15.776c0 .356-.016.64-.043.86-.03.216-.105.382-.223.5-.12.12-.288.21-.504.267-.215.06-.3.1-.382.12v.663h14.767v-4.794h-1.36c-.16.808-.31 1.45-.46 1.924m17.875-16.794c-.7-.405-1.506-.664-2.413-.77a23.364 23.364 0 0 0-2.81-.163h-8.137v.665c.08.022.165.06.382.118.218.06.385.15.504.267.12.118.19.286.224.5.027.22.043.506.043.86V23.09c0 .356-.016.64-.043.86-.033.216-.105.382-.223.5-.118.118-.285.21-.503.267-.217.06-.3.1-.382.12v.663h6.744v-.664c-.084-.02-.168-.058-.383-.12a1.062 1.062 0 0 1-.503-.266c-.12-.118-.194-.284-.225-.5a6.64 6.64 0 0 1-.043-.86v-5.76h2.042c1.065 0 2.08-.08 3.047-.237.964-.16 1.82-.472 2.56-.933.738-.465 1.324-1.12 1.76-1.97.435-.846.652-1.97.652-3.37 0-1.342-.21-2.41-.62-3.197-.418-.788-.976-1.384-1.675-1.79m-3.046 8.818c-.506.938-1.39 1.406-2.65 1.406h-2.073v-8.76c0-.195.015-.368.042-.517a.61.61 0 0 1 .206-.356c.11-.09.28-.153.505-.194.23-.038.54-.057.932-.057.533 0 1.032.07 1.497.207.46.138.864.38 1.21.724.345.35.614.806.8 1.377.187.573.28 1.294.28 2.16 0 1.74-.25 3.073-.75 4.01m21.687-.916c-.718-.5-1.657-.868-2.81-1.096-1.156-.225-2.562-.338-4.217-.338h-1.716V7.386c0-.533.106-.868.325-1.006.215-.14.67-.207 1.36-.207h2.484c.77 0 1.397.03 1.88.09.486.06.882.197 1.198.414.318.216.573.542.772.977.195.434.393 1.013.59 1.744h1.096V4.902h-15.264v.663c.082.022.165.06.382.118.217.06.385.15.503.267.12.118.194.287.224.502.03.217.044.505.044.86v15.776c0 .357-.014.642-.043.86-.03.217-.103.383-.223.5-.118.12-.286.212-.503.268-.217.06-.3.098-.382.12v.662h7.75c1.065 0 2.117-.06 3.154-.18 1.035-.113 1.956-.407 2.768-.87.806-.463 1.457-1.156 1.95-2.07.493-.92.74-2.178.74-3.776 0-1.145-.163-2.117-.488-2.915a4.312 4.312 0 0 0-1.57-1.952m-2.93 7.975c-.225.71-.527 1.252-.9 1.628a2.588 2.588 0 0 1-1.29.723c-.48.11-.98.166-1.492.166-.494 0-.878-.034-1.154-.103-.276-.072-.49-.185-.636-.342a1.132 1.132 0 0 1-.283-.618 7.292 7.292 0 0 1-.056-.98v-8.61h1.773c1.598 0 2.73.41 3.39 1.226.658.82.993 2.158.993 4.012 0 1.225-.115 2.19-.343 2.9m43.665-16.808h-5.561v.664c.08.02.166.06.384.117.216.06.383.152.502.268.12.118.193.287.223.502.03.218.045.505.045.86V13.9h-7.963V7.312c0-.355.015-.642.044-.86.03-.215.104-.384.22-.5.123-.117.29-.21.508-.27.217-.056.3-.097.38-.116v-.664h-6.714v.664c.082.02.167.06.384.117.215.06.383.152.502.268.12.118.193.287.224.502.027.21.042.484.042.825v15.85c0 .335-.015.61-.042.82-.03.218-.104.384-.224.5-.12.12-.287.213-.502.27-.217.06-.302.098-.384.118v.663h6.714v-.663c-.08-.02-.163-.058-.38-.12a1.083 1.083 0 0 1-.507-.267c-.117-.117-.19-.283-.22-.5a6.554 6.554 0 0 1-.045-.86v-4.115.002-3.718h7.963v7.83c0 .357-.016.642-.046.86-.03.217-.105.383-.224.5-.12.12-.286.212-.502.268-.217.062-.303.1-.383.12v.663h6.715v-.664c-.08-.02-.165-.057-.383-.12a1.072 1.072 0 0 1-.503-.266c-.12-.118-.193-.284-.223-.5a7.02 7.02 0 0 1-.043-.86v-4.115l-.03.092v-7.728l.028.087V7.312c0-.355.017-.643.045-.86.03-.215.104-.384.222-.502.12-.116.285-.207.502-.267.218-.058.302-.1.383-.118v-.663h-1.153zm-20.892 15.98l-4.708-13.495c-.216-.61-.357-1.11-.427-1.495s-.124-.716-.165-.99h-5.885v.664c.08.02.165.06.382.117.217.06.385.152.502.268.12.118.194.287.224.502.017.124.028.28.035.45-.018.475-.1.96-.26 1.343l-3.283 8.137a229.335 229.335 0 0 1-1.568 3.818 160.282 160.282 0 0 1-1.113 2.573 22.663 22.663 0 0 1-.798 1.66c-.228.414-.43.772-.61 1.065h3.73c.04-.493.195-1.336.46-2.53.266-1.192.744-2.837 1.436-4.93h6.54l.886 2.638c.394 1.18.712 2.18.947 2.985.237.812.374 1.422.412 1.838h5.24a44.925 44.925 0 0 1-.813-1.672c-.326-.7-.718-1.68-1.17-2.945m-11.57-4.2l2.84-8.318 2.782 8.318h-5.623zm53.385 6.628c-.693-.75-1.255-1.372-1.69-1.867-.63-.705-1.22-1.378-1.773-2.01a54.355 54.355 0 0 1-1.568-1.864c-.495-.61-.964-1.23-1.407-1.846a33.255 33.255 0 0 1-1.317-2.002l.325-.413c.492-.632 1.076-1.355 1.746-2.174a74.491 74.491 0 0 1 2.074-2.425c.71-.8 1.418-1.538 2.128-2.22.713-.682 1.353-1.2 1.925-1.553v-.03h-4.823c-.158.414-.398.92-.728 1.523-.32.602-.705 1.247-1.135 1.937-.435.69-.888 1.41-1.363 2.148a55.897 55.897 0 0 1-1.418 2.116c-.475.67-.916 1.29-1.32 1.865a44.07 44.07 0 0 1-1.02 1.39c.495.67.94 1.282 1.346 1.835.404.552.79 1.077 1.154 1.582.365.504.72.998 1.066 1.48.345.485.705.993 1.08 1.525.394.554.745 1.095 1.053 1.626.302.534.584 1.057.842 1.57l6.953.06c-.733-.755-1.44-1.5-2.13-2.25m-11.45 1.14c-.12-.117-.194-.283-.224-.5a6.955 6.955 0 0 1-.044-.86V7.312c0-.355.016-.642.045-.86.03-.215.105-.384.224-.5.117-.117.286-.21.503-.27.215-.056.3-.097.382-.116v-.664h-6.716v.664c.082.02.165.06.38.117.22.06.386.152.505.268a.856.856 0 0 1 .22.502c.03.218.045.505.045.86v15.776c0 .357-.015.642-.044.86a.841.841 0 0 1-.22.5c-.12.12-.286.212-.505.268-.216.06-.3.098-.38.12v.662h6.714v-.663c-.083-.02-.165-.058-.383-.12a1.067 1.067 0 0 1-.503-.267M11.82 8.724L5.064 4.84A19.73 19.73 0 0 0 3.71 6.504l8.11 4.666L29.262 1.14C28.532.71 27.772.33 26.99 0L11.82 8.724zm0 4.893L2.558 8.29c-.35.615-.67 1.247-.953 1.9l10.215 5.87L32.937 3.917a19.843 19.843 0 0 0-1.71-1.463L11.82 13.618zm0 4.89L.858 12.205a18.935 18.935 0 0 0-.528 2.142l11.49 6.61 23.872-13.73a19.765 19.765 0 0 0-.738-1.043c-.112-.148-.23-.295-.346-.44l-.19-.233L11.82 18.51zm0 4.895L.045 16.63c-.024.34-.038.68-.043 1.026-.017 1.27.092 2.544.323 3.798a19.272 19.272 0 0 0 2.324 6.27 19.508 19.508 0 0 0 12.774 9.236c1.125.236 2.29.375 3.478.407h1.083a19.531 19.531 0 0 0 1.918-.148 19.604 19.604 0 0 0 7.69-2.694 19.53 19.53 0 0 0 5.7-5.322 19.463 19.463 0 0 0 3.422-8.584 19.938 19.938 0 0 0 .177-3.204 19.33 19.33 0 0 0-.22-2.417 19.51 19.51 0 0 0-1.914-5.94L11.82 23.402z"/></symbol><symbol viewbox="0 0 34.765 35.114" id="icon--phone" class="icon icon--phone"><path d="M17.685 10.62c1.666-.17 2.756-1.763 3.563-2.978.715-1.078 2.057-2.584 1.63-4.045C22.492 2.264 19.447 1 18.254.725 16.73.387 14.133.452 12 1.565 8.107 3.6 5.744 7.053 3.566 11.475 1.557 15.56-.222 19.675.735 24.43c.982 4.9 4.086 7.06 7.492 8.078.072.023.24-.088.324-.088 1.606-.096 2.278-1.803 2.812-3.58.463-1.547 1.078-3.28.26-4.81-.916-1.722-3.56-1.07-4.604-2.757-1.352-2.217.256-5.197 1.145-7.04.873-1.817 2.01-4.786 4.416-5.3 2.122-.46 2.923 1.91 5.105 1.688zM33.952 17.762a13.662 13.662 0 0 0-3.408-6.34l.033.002.078-2.824-6.684-.186 2.917 6.127 1.88-.894a10.828 10.828 0 0 1 2.433 4.75 10.85 10.85 0 0 1-1.38 8.238 10.89 10.89 0 0 1-12.665 4.586l-.885 2.684a13.71 13.71 0 0 0 15.944-5.772 13.65 13.65 0 0 0 1.738-10.37z"/></symbol><symbol viewbox="0 0 34.765 35.114" id="icon--play" class="icon icon--play"><path d="M7.99 34.634a1.541 1.541 0 0 1-1.538-1.54V2.503c0-.577.323-1.105.836-1.37a1.545 1.545 0 0 1 1.6.12L30.186 16.55a1.54 1.54 0 0 1 0 2.5L8.89 34.345c-.268.19-.583.29-.9.29zm1.54-29.13v24.59L26.65 17.8 9.53 5.502z"/></symbol><symbol viewbox="0 0 56.966 56.966" id="icon--search" class="icon icon--search"><path d="M55.146 51.887l-13.558-14.1A22.933 22.933 0 0 0 46.984 23c0-12.682-10.318-23-23-23s-23 10.318-23 23 10.318 23 23 23c4.76 0 9.298-1.436 13.177-4.162l13.662 14.208c.57.593 1.34.92 2.162.92.78 0 1.518-.297 2.08-.837a3.006 3.006 0 0 0 .082-4.243zM23.984 6c9.374 0 17 7.626 17 17s-7.626 17-17 17-17-7.626-17-17 7.626-17 17-17z"/></symbol><symbol viewbox="0 0 307.116 87.325" id="icon--siyanie-colored" class="icon icon--siyanie-colored"><path fill="#ff48c9" d="M39.575 17.204c.035.005.07.017.107.02.15.034.3.056.454.095.314.074.63.17.946.283.238.078.47.16.705.25.175.063.344.128.513.186 2.077.705 3.907 2.213 5.464 3.21.036.025.066.05.103.074a33.99 33.99 0 0 1 2.94 2.13c2.928 2.356 5.274 4.976 8.125 7.876 8.355 8.488 15.355 19.108 21.792 31.875 1.725 3.42 3.41 6.99 5.07 10.72 1.855 4.175 3.68 8.54 5.493 13.105a273.551 273.551 0 0 0-3.72-13.504 253.303 253.303 0 0 0-3.84-11.683c-6.83-19.183-15.768-36.648-26.25-48.21a67.406 67.406 0 0 0-1.46-1.575C49.994 5.818 43.487 1.538 36.59 0c0 0 .69 2.525.787 4.275.033.286.068.63.1.983.17 2.107.252 5.048.312 6.73.113 3.32-.446 4.587-.216 4.943.662.04 1.327.137 1.987.273h.014"/><path fill="#4c58dd" d="M86.864 61.396c-.023.027-.054.045-.08.07-.12.1-.23.206-.353.3-.25.203-.52.39-.807.575-.202.14-.416.273-.626.4-.157.1-.315.2-.46.295-1.836 1.208-4.15 1.727-5.892 2.342-.04.015-.08.028-.122.04a34.3 34.3 0 0 1-3.482 1.017c-3.66.863-7.17 1.108-11.21 1.585-11.825 1.387-24.505.4-38.534-2.35a240.017 240.017 0 0 1-11.58-2.575c-4.433-1.094-9-2.33-13.715-3.7 4.25 1.887 8.58 3.674 12.945 5.35a258.585 258.585 0 0 0 11.582 4.132c19.338 6.375 38.615 10.034 54.176 8.85a80.477 80.477 0 0 0 2.142-.187c8.622-.934 15.995-3.445 21.44-7.945 0 0-2.418-1.005-3.863-2.002-.243-.153-.536-.333-.835-.53-1.766-1.153-4.14-2.893-5.503-3.878-2.692-1.944-3.35-3.162-3.776-3.202a13.353 13.353 0 0 1-1.442 1.413"/><path fill="#00f7c8" d="M27.364 78.528c-.007-.037-.01-.077-.02-.112-.017-.15-.052-.3-.07-.453-.035-.32-.055-.654-.062-.99-.01-.248-.012-.495-.01-.747 0-.18 0-.368-.006-.547-.06-2.195.713-4.433 1.107-6.24.01-.043.023-.08.03-.126.272-1.227.6-2.385.968-3.495 1.19-3.57 2.83-6.68 4.55-10.366 5.04-10.79 12.55-21.054 22.27-31.54 2.607-2.81 5.362-5.64 8.282-8.495A347.552 347.552 0 0 1 74.763 5.7a273.21 273.21 0 0 0-11.357 8.195 254.3 254.3 0 0 0-9.606 7.673C38.2 34.667 24.95 49.135 17.773 62.99c-.33.64-.66 1.283-.965 1.92-3.747 7.824-5.488 15.417-4.526 22.414 0 0 2.125-1.527 3.734-2.23.257-.13.566-.284.886-.434 1.91-.894 4.64-1.997 6.195-2.637 3.073-1.27 4.452-1.185 4.71-1.53a13.417 13.417 0 0 1-.44-1.953l-.003-.012"/><path fill="#4c58dd" d="M182.445 26.5c-1.368-.003-2.58.3-3.638.907-1.058.606-1.588 1.432-1.59 2.47l-.027 11.516c0 1.04.48 1.854 1.442 2.435.97.584 2.224.88 3.773.88l.04-18.21zm-13.21 20.187c-1.933-1.165-3.34-2.744-4.23-4.74-.77-1.76-1.15-3.843-1.146-6.25.01-4.136 1.324-7.364 3.946-9.68 3.103-2.728 7.985-4.084 14.65-4.07l17.092.04-.08 34.274-17.093-.036.016-6.696-4.522 6.686-16.335-.04 7.7-9.486zm52.142-24.32v14.147h5.4V22.367h17.004v34.186h-17.003V41.647h-5.4v14.906h-17.004V22.367h17.005zm43.693 0V48.34c0 1.19.333 2.098 1.002 2.724.67.623 1.465.936 2.39.936.92 0 1.7-.305 2.34-.915.64-.61.96-1.523.96-2.746V22.365h5.937V48.34c0 2.352-1.015 4.257-3.037 5.714-2.53 1.844-6.486 2.766-11.87 2.766-5.387 0-9.343-.937-11.872-2.812-1.965-1.458-2.945-3.346-2.945-5.67V22.37h17.093zm40.79 0v4.462h-7.498v9.594h7.498v4.508h-7.498V52.09h8.435v4.463h-25.53V22.367h24.593zm-180.03 5.49c-2.74-.895-5.165-1.34-7.276-1.34-.837 0-1.675.112-2.525.335-.85.224-1.535.707-2.054 1.45-.518.744-.78 1.74-.78 2.99V48.34c0 2.5.92 3.75 2.765 3.75 1.043 0 2.644-.133 4.8-.403 2.16-.265 3.845-.623 5.07-1.07v5.222c-1.61.383-3.256.69-4.937.912-1.68.223-3.428.335-5.244.335-5.475 0-10.116-1.725-13.924-5.18-3.808-3.45-5.712-7.6-5.712-12.447 0-4.88 1.904-9.017 5.712-12.407 3.808-3.39 8.45-5.087 13.923-5.087h1.52c1.99 0 3.62.087 4.885.266 1.264.18 2.52.58 3.773 1.206v4.42z"/><path fill="#00f7c8" d="M146.937 22.367V48.34c0 1.19.335 2.098 1 2.724.674.623 1.47.936 2.393.936.918 0 1.702-.305 2.34-.915.64-.61.96-1.523.96-2.746V22.365h5.937V48.34c0 2.352-1.014 4.257-3.036 5.714-2.526 1.844-6.484 2.766-11.87 2.766-5.386 0-9.344-.937-11.87-2.812-1.964-1.458-2.946-3.346-2.946-5.67V22.37h17.094z"/><path fill="#4c58dd" d="M172.18 66.908v.037l-.055-.037c-.058.01-.13.018-.225.018-.18.013-.403.02-.676.02-.478 0-.717-.062-.717-.18 0-.063.06-.138.184-.227a3.61 3.61 0 0 0 .92-1.07c.26-.44.4-.84.43-1.2 0-.09.01-.168.028-.236l.023-.067a.188.188 0 0 0 .007-.05c0-.087-.09-.13-.268-.13-.364 0-.928.266-1.688.795a8.22 8.22 0 0 0-1.348 1.207 6.334 6.334 0 0 0-.985 1.4c-.236.465-.353.885-.353 1.257 0 .363.135.546.406.546.263 0 .926-.296 1.988-.886.478-.278 1.254-.678 2.334-1.2m-.715 2.01l-.38.19a1.86 1.86 0 0 1-.138.076c-.058.034-.138.074-.23.12-1.62.855-2.895 1.452-3.818 1.8-.925.346-1.727.52-2.413.52-.76 0-1.37-.186-1.834-.56-.464-.37-.696-.87-.696-1.49 0-.778.325-1.578.977-2.408.653-.828 1.513-1.588 2.58-2.282 1.07-.693 2.24-1.25 3.517-1.666 1.276-.42 2.507-.63 3.7-.63 1.17 0 2.063.133 2.678.406.614.27.923.68.923 1.22 0 .454-.27 1.014-.8 1.68.38.02.663.1.843.242.177.14.265.364.265.665 0 .494-.15 1.18-.45 2.06-.3.876-.667 1.69-1.098 2.43-.523.94-1.274 1.756-2.25 2.45-.74.523-1.658.97-2.755 1.346-1.095.377-2.042.562-2.827.562a3.033 3.033 0 0 1-1.757-.53c-.515-.353-.774-.75-.774-1.19 0-.295.112-.604.34-.92.222-.32.514-.593.87-.82.732-.498 1.804-.968 3.22-1.415.262-.09.464-.133.604-.133a.28.28 0 0 1 .155.045c.05.034.07.068.07.106 0 .045-.056.13-.167.257-.28.32-.53.732-.746 1.234-.213.5-.32.936-.32 1.3 0 .43.096.644.295.644.103 0 .23-.08.387-.233a3.04 3.04 0 0 0 .415-.524c.795-1.36 1.305-2.62 1.528-3.78.027-.17.057-.425.09-.766m11.297-.35c.432-.195.762-.39.986-.586.496-.41.88-.88 1.154-1.41.216-.345.383-.73.506-1.16.12-.43.18-.83.18-1.2 0-.347-.106-.52-.32-.52-.3 0-.76.444-1.38 1.333a9.509 9.509 0 0 0-.89 1.6c-.234.533-.348.99-.348 1.376 0 .13.038.322.113.567m.03.302c.103.38.47.567 1.097.567.704 0 1.617-.278 2.742-.834.654-.322 1.097-.48 1.32-.48.283 0 .544.05.79.15.246.1.366.205.366.312 0 .11-.137.262-.408.444-.496.333-1.07.66-1.716.978-.647.317-1.27.582-1.87.793-.602.21-1.2.38-1.8.5a8.043 8.043 0 0 1-1.605.184c-1.172 0-2.108-.226-2.812-.676-.703-.45-1.055-1.05-1.055-1.8 0-.57.187-1.22.557-1.94a8.05 8.05 0 0 1 1.498-2.026c.74-.74 1.65-1.353 2.728-1.845 1.33-.594 2.608-.89 3.825-.89.882 0 1.573.19 2.076.564.502.373.753.89.753 1.545 0 .507-.2 1.042-.598 1.594-.4.556-.988 1.088-1.766 1.598a9.446 9.446 0 0 1-1.878 1c-.614.242-1.15.362-1.61.362-.207 0-.417-.034-.63-.105m13.434-2.343l.848-.665c.857-.64 1.536-1.113 2.037-1.424.5-.314.95-.54 1.35-.677a3.704 3.704 0 0 1 1.21-.207c.67 0 1.136.12 1.41.36.27.24.408.656.408 1.247 0 .244-.04.608-.114 1.086-.115.636-.17 1.235-.17 1.795 0 .63.047 1.14.14 1.534.07.24.164.478.297.716.09.226.137.38.137.463 0 .1-.054.18-.167.236-.29.17-.675.317-1.154.443-.48.125-.88.19-1.208.19-.536 0-1.02-.123-1.457-.37a2.576 2.576 0 0 1-1.014-1.022 3.009 3.009 0 0 1-.357-1.472c0-.367.055-.798.168-1.296l-.055-.036c-.405.3-.73.54-.98.718-.247.173-.48.34-.695.5a50.041 50.041 0 0 0-2.673 2.183c-.282.25-.54.47-.774.66a2.07 2.07 0 0 1-1.18.35c-.6 0-1.09-.153-1.464-.454a1.44 1.44 0 0 1-.56-1.172c0-.295.05-.656.154-1.084.103-.433.24-.89.416-1.38.172-.487.38-.988.618-1.504.24-.518.5-1.007.782-1.474.43-.776.953-1.38 1.572-1.815.422-.284.935-.425 1.536-.425.974 0 1.46.425 1.46 1.275 0 .624-.193 1.517-.58 2.68l.056.04zm14.293 2.82c.265.515.76.773 1.493.773.515 0 .995-.158 1.44-.468.446-.313.8-.734 1.068-1.265a3.695 3.695 0 0 0 .402-1.68c0-.464-.053-.87-.16-1.21-.107-.338-.23-.51-.362-.51-.09 0-.33.168-.716.502-.382.334-.77.72-1.152 1.162-.788.854-1.385 1.612-1.784 2.266-.105.17-.18.312-.23.427m1.07-4.03l.436-.552c.414-.487.796-.895 1.148-1.222.353-.324.663-.563.938-.717a4.1 4.1 0 0 1 .97-.368 3.955 3.955 0 0 1 1.018-.124c.71 0 1.346.143 1.894.426.55.284.97.69 1.268 1.22.295.527.444 1.135.444 1.822 0 .99-.33 1.94-.99 2.85-.664.91-1.53 1.647-2.604 2.207-1.073.56-2.182.84-3.327.84-.665 0-1.223-.092-1.668-.283-.45-.187-.857-.514-1.233-.975l-.095.16-.082.21c-.612 1.318-1.097 2.285-1.457 2.904-.36.62-.672 1.004-.935 1.14-.206.135-.447.2-.72.2-.532 0-.947-.176-1.25-.53-.3-.354-.45-.85-.45-1.483 0-.693.114-1.523.338-2.495.223-.97.536-1.96.935-2.968.4-1.008.84-1.923 1.328-2.75.32-.505.667-.944 1.052-1.323.382-.38.747-.65 1.093-.82.25-.1.523-.15.81-.15.43 0 .764.076 1 .235.23.16.346.386.346.676 0 .247-.038.52-.113.82-.056.292-.11.626-.152 1.005l.055.05zm18.568-3.313c1.394 0 2.092.11 2.092.33 0 .252-.31.387-.94.408a6.43 6.43 0 0 0-2.125.434c-.656.26-1.24.61-1.75 1.06-.51.445-.91.95-1.195 1.51a3.83 3.83 0 0 0-.43 1.775c0 .686.24 1.24.72 1.66.476.42 1.1.627 1.87.627.71 0 1.335-.245 1.87-.738.536-.49.8-1.064.8-1.72 0-.536-.166-1.04-.5-1.51-.33-.467-.815-.862-1.454-1.183-.272-.146-.407-.25-.407-.31 0-.09.193-.226.577-.408a8.67 8.67 0 0 1 1.448-.494c.535-.132.985-.198 1.35-.198.423 0 .823.074 1.204.22.38.15.71.362 1.004.634.29.275.516.59.67.945.153.357.23.734.23 1.138 0 .67-.187 1.33-.562 1.98a4.631 4.631 0 0 1-1.476 1.582c-.786.51-1.738.93-2.848 1.253-1.11.324-2.17.486-3.17.486a12.72 12.72 0 0 1-2.907-.34c-.96-.227-1.722-.526-2.283-.897-.752-.506-1.128-1.22-1.128-2.146 0-.733.27-1.46.803-2.194.535-.73 1.257-1.394 2.172-1.99a12.131 12.131 0 0 1 3.023-1.407 11.16 11.16 0 0 1 3.342-.515m15.174 5.354v-.55c-.48.284-.835.426-1.067.426-.133 0-.2-.045-.2-.132 0-.038.03-.118.086-.236.2-.378.294-.744.294-1.097 0-.51-.163-1.04-.492-1.587-.138-.284-.313-.424-.52-.424a.348.348 0 0 0-.253.093c-.31.24-.604.578-.887 1.016-.28.44-.512.914-.695 1.428-.182.515-.276.97-.276 1.366 0 .75.34 1.124 1.015 1.124.336 0 .787-.134 1.353-.4.57-.27 1.116-.61 1.64-1.025m.435-4.49l.142-.386c.29-.865.552-1.563.787-2.095.23-.532.475-.98.724-1.35.246-.37.49-.634.737-.8.394-.283 1.104-.424 2.124-.424.45 0 .786.015 1.007.048.22.032.395.087.528.17-.45.938-.76 1.642-.935 2.113-.174.466-.365 1.11-.573 1.93-.315 1.335-.475 2.54-.475 3.62 0 .71.088 1.45.26 2.216.174.767.455 1.617.852 2.555-.5.234-.973.43-1.428.597-.456.165-.887.292-1.295.387-.407.095-.766.14-1.075.14-.547 0-.93-.18-1.156-.537-.187-.295-.31-.535-.367-.714-.056-.18-.155-.677-.294-1.495-1.258.88-2.46 1.574-3.608 2.082-1.15.506-2.067.758-2.75.758-.788 0-1.432-.214-1.934-.647-.5-.43-.75-.985-.75-1.666 0-.61.192-1.29.582-2.036.39-.746.927-1.47 1.61-2.167.45-.46.912-.85 1.385-1.167.473-.32 1.01-.613 1.61-.885 1.088-.48 1.998-.718 2.73-.718.357 0 .875.156 1.56.473m11.905 5.763l-.058.188c0 .11-.02.262-.057.464-.036.31-.087.562-.153.757a1.242 1.242 0 0 1-.297.486c-.13.13-.308.27-.535.415-.683.42-1.373.632-2.066.632-.562 0-.977-.138-1.245-.415-.27-.28-.403-.724-.403-1.342 0-.49.082-1.1.246-1.82.164-.722.365-1.37.6-1.94l.11-.248c0-.036.028-.116.084-.235.35-.86.67-1.494.957-1.905a3.53 3.53 0 0 1 1.057-.997c.363-.194.78-.293 1.237-.293.667 0 1.07.27 1.21.814.13-.078.257-.165.38-.265.27-.22.482-.366.63-.44.152-.074.326-.11.522-.11.807 0 1.21.536 1.21 1.61 0 .582-.094 1.15-.282 1.7-.187.546-.425.994-.712 1.34-.286.347-.57.52-.85.52-.31 0-.465-.393-.465-1.18 0-.415-.034-.74-.104-.98-.07-.235-.18-.42-.33-.55-.283.35-.463 1.16-.55 2.42-.064.727-.113 1.19-.14 1.377m13.584-3.6l.183-.408c.243-.63.614-1.117 1.113-1.456.32-.215.686-.39 1.1-.53.41-.138.786-.208 1.124-.208.62 0 .93.177.93.53 0 .176-.085.45-.255.822-.168.372-.39.792-.67 1.26a33.133 33.133 0 0 1-2.202 3.275c-.817 1.122-1.643 2.07-2.477 2.844-.6.555-1.21 1.047-1.83 1.474-.62.43-1.27.814-1.95 1.15-.68.345-1.324.6-1.93.775-.606.172-1.16.26-1.668.26-.423 0-.633-.125-.633-.37 0-.195.065-.428.197-.698.133-.273.315-.526.55-.768.253-.226.574-.43.958-.605.49-.226 1.208-.485 2.156-.773a33.505 33.505 0 0 1-1.283-1.513c-.29-.374-.61-.835-.957-1.393-.77-1.226-1.156-2.34-1.156-3.342 0-.764.14-1.384.42-1.864.255-.41.717-.7 1.392-.87.545-.14 1.034-.215 1.465-.215.606 0 1.02.157 1.23.47.21.31.396 1.037.556 2.186.17 1.23.443 2.44.82 3.637.066.184.143.438.227.758h.057c.254-.373.53-.82.83-1.35.094-.15.42-.71.986-1.674a22.6 22.6 0 0 0 .718-1.406m15.013 1.57l-.268.06c-.675.124-1.165.186-1.465.186-.365 0-.547-.062-.547-.187 0-.047.074-.163.225-.35.524-.535.787-1.04.787-1.513 0-.27-.07-.515-.21-.742-.14-.223-.296-.334-.467-.334-.148 0-.378.105-.686.32-.872.636-1.563 1.287-2.075 1.956-.51.67-.767 1.264-.767 1.785 0 .346.105.633.317.863.212.225.476.338.795.338.27 0 .78-.196 1.525-.586.745-.39 1.58-.907 2.512-1.55l.376-.207-.054-.038zm-.846 2.165v.035l-.058-.037c-.87.685-1.67 1.248-2.398 1.686-.728.44-1.398.767-2.01.988-.615.22-1.18.33-1.695.33-1.05 0-1.92-.238-2.605-.71-.683-.473-1.025-1.07-1.025-1.794 0-.446.17-.976.506-1.59.336-.61.803-1.206 1.394-1.794.982-.957 2.22-1.77 3.712-2.438 1.537-.687 3.02-1.03 4.446-1.03 1.198 0 2.186.165 2.957.497.774.33 1.163.748 1.163 1.253 0 .37-.194.765-.578 1.18.505 0 .824.036.957.108.13.074.195.242.195.507 0-.024-.024.104-.072.39a19.592 19.592 0 0 0-.083 1.747c0 .285.004.497.016.642.007.144.028.313.056.5.03.19.056.342.084.453.075.296.198.59.366.88-.56.372-1.1.644-1.616.816-.52.174-1.042.26-1.577.26-1.443 0-2.166-.81-2.166-2.437 0-.188.006-.34.027-.445m15.208-1.406v-.55c-.48.284-.836.426-1.07.426-.133 0-.198-.045-.198-.132 0-.038.03-.118.087-.236.2-.378.296-.744.296-1.097 0-.51-.164-1.04-.492-1.587-.142-.284-.314-.424-.52-.424a.354.354 0 0 0-.254.093c-.31.24-.606.578-.887 1.016-.28.44-.514.914-.696 1.428-.184.515-.275.97-.275 1.366 0 .75.34 1.124 1.015 1.124.335 0 .79-.134 1.355-.4.57-.27 1.115-.61 1.64-1.025m.435-4.49l.14-.386c.29-.865.554-1.563.79-2.095.23-.532.476-.98.724-1.35.248-.37.494-.634.74-.8.392-.283 1.102-.424 2.122-.424.452 0 .788.015 1.008.048.22.032.395.087.528.17-.45.938-.762 1.642-.937 2.113-.172.466-.363 1.11-.57 1.93-.318 1.335-.476 2.54-.476 3.62 0 .71.088 1.45.26 2.216.173.767.455 1.617.85 2.555-.497.234-.97.43-1.426.597-.456.165-.888.292-1.295.387-.41.095-.766.14-1.075.14-.546 0-.93-.18-1.155-.537-.188-.295-.31-.535-.366-.714-.056-.18-.156-.677-.294-1.495-1.26.88-2.46 1.574-3.607 2.082-1.15.506-2.067.758-2.75.758-.79 0-1.433-.214-1.933-.647-.504-.43-.754-.985-.754-1.666 0-.61.193-1.29.58-2.036.392-.746.93-1.47 1.613-2.167.45-.46.913-.85 1.385-1.167.473-.32 1.01-.613 1.61-.885 1.09-.48 2-.718 2.73-.718.355 0 .876.156 1.56.473"/></symbol><symbol viewbox="0 0 307.116 87.325" id="icon--siyanie-mono" class="icon icon--siyanie-mono"><path d="M39.575 17.204c.035.005.07.017.107.02.15.034.3.056.454.095.314.075.63.172.946.284.238.078.47.16.705.25.175.063.344.128.513.186 2.077.706 3.907 2.214 5.464 3.21.036.026.066.05.103.075a33.99 33.99 0 0 1 2.94 2.13c2.928 2.356 5.274 4.976 8.125 7.876 8.355 8.488 15.355 19.108 21.792 31.875 1.725 3.42 3.41 6.99 5.07 10.72 1.855 4.175 3.68 8.54 5.493 13.105a273.551 273.551 0 0 0-3.72-13.504 253.303 253.303 0 0 0-3.84-11.683c-6.83-19.183-15.768-36.648-26.25-48.21a67.406 67.406 0 0 0-1.46-1.575C49.994 5.817 43.486 1.537 36.59 0c0 0 .69 2.525.787 4.275.033.286.068.63.1.983.17 2.107.252 5.048.312 6.73.114 3.32-.445 4.587-.215 4.943.662.04 1.327.136 1.987.272h.013"/><path d="M86.864 61.396c-.023.027-.054.045-.08.07-.12.1-.23.206-.353.3-.25.203-.52.39-.808.575-.202.14-.416.272-.626.4-.157.1-.315.2-.46.294-1.836 1.208-4.15 1.727-5.892 2.342-.04.015-.08.028-.122.04a34.3 34.3 0 0 1-3.482 1.017c-3.66.863-7.17 1.108-11.21 1.585-11.826 1.388-24.506.402-38.535-2.348a241.257 241.257 0 0 1-11.58-2.576c-4.433-1.094-9-2.33-13.715-3.7 4.25 1.887 8.58 3.674 12.944 5.35a258.585 258.585 0 0 0 11.582 4.132c19.338 6.375 38.615 10.034 54.176 8.85a80.477 80.477 0 0 0 2.142-.187c8.622-.934 15.995-3.445 21.44-7.945 0 0-2.418-1.005-3.863-2.002-.243-.153-.536-.333-.835-.53-1.766-1.153-4.14-2.893-5.503-3.878-2.692-1.944-3.35-3.162-3.776-3.202a13.353 13.353 0 0 1-1.442 1.413"/><path d="M27.364 78.528c-.007-.037-.01-.077-.02-.112-.017-.15-.052-.3-.07-.453-.035-.32-.055-.654-.062-.99-.01-.248-.012-.495-.01-.747 0-.18 0-.368-.006-.547-.06-2.194.713-4.432 1.107-6.24.01-.042.023-.08.03-.125.272-1.227.6-2.385.968-3.495 1.19-3.57 2.83-6.68 4.55-10.365C38.89 44.665 46.4 34.4 56.12 23.915a242.585 242.585 0 0 1 8.282-8.496 348.865 348.865 0 0 1 10.36-9.716 273.21 273.21 0 0 0-11.357 8.195 254.3 254.3 0 0 0-9.606 7.673c-15.597 13.095-28.85 27.563-36.025 41.42-.33.64-.66 1.282-.965 1.918-3.746 7.825-5.487 15.418-4.525 22.415 0 0 2.125-1.527 3.734-2.23.257-.13.566-.284.886-.434 1.91-.894 4.64-1.997 6.195-2.637 3.074-1.27 4.453-1.185 4.71-1.53a13.684 13.684 0 0 1-.44-1.953l-.002-.012M182.445 26.5c-1.368-.003-2.58.3-3.638.907-1.058.606-1.588 1.432-1.59 2.47l-.027 11.516c0 1.04.48 1.854 1.442 2.435.97.584 2.224.88 3.773.88l.04-18.21zm-13.21 20.187c-1.933-1.165-3.34-2.744-4.23-4.74-.77-1.76-1.15-3.843-1.146-6.25.01-4.136 1.325-7.364 3.947-9.68 3.103-2.728 7.985-4.084 14.65-4.07l17.092.04-.08 34.274-17.093-.037.016-6.696-4.523 6.686-16.335-.04 7.7-9.486zm52.142-24.32v14.147h5.4V22.367h17.004v34.186h-17.004V41.647h-5.4v14.906h-17.004V22.367h17.005zm43.693 0V48.34c0 1.19.333 2.098 1.002 2.724.67.623 1.465.936 2.39.936.92 0 1.7-.305 2.34-.915.64-.61.96-1.523.96-2.746V22.366h5.937V48.34c0 2.352-1.014 4.257-3.036 5.714-2.53 1.844-6.486 2.766-11.87 2.766-5.387 0-9.343-.937-11.872-2.812-1.966-1.458-2.946-3.346-2.946-5.67V22.37h17.093zm40.79 0v4.462h-7.498v9.595h7.498v4.508h-7.498V52.09h8.435v4.463h-25.53V22.367h24.593zm-180.03 5.49c-2.74-.895-5.165-1.34-7.276-1.34-.837 0-1.675.112-2.525.335-.848.224-1.534.707-2.053 1.45-.518.744-.78 1.74-.78 2.99V48.34c0 2.5.92 3.75 2.765 3.75 1.042 0 2.643-.133 4.798-.403 2.16-.265 3.846-.623 5.07-1.07v5.222c-1.61.384-3.255.69-4.936.913-1.68.223-3.428.335-5.244.335-5.474 0-10.115-1.725-13.923-5.18-3.808-3.45-5.712-7.6-5.712-12.447 0-4.88 1.904-9.017 5.712-12.407 3.808-3.39 8.45-5.087 13.923-5.087h1.52c1.99 0 3.62.087 4.886.266 1.264.18 2.52.58 3.773 1.206v4.42zM146.937 22.367V48.34c0 1.19.335 2.098 1 2.724.674.623 1.47.936 2.393.936.918 0 1.702-.305 2.34-.915.64-.61.96-1.523.96-2.746V22.366h5.937V48.34c0 2.352-1.014 4.257-3.036 5.714-2.527 1.844-6.485 2.766-11.87 2.766-5.387 0-9.345-.937-11.87-2.812-1.965-1.458-2.947-3.346-2.947-5.67V22.37h17.094z"/></symbol><symbol viewbox="0 0 102.284 87.324" id="icon--siyanie" class="icon icon--siyanie"><path fill="#ff48c9" d="M39.574 17.204c.035.005.07.017.107.02.15.034.3.056.455.095.314.074.63.17.946.283.24.078.47.16.706.25.175.063.344.128.513.186 2.076.705 3.906 2.213 5.463 3.21.036.025.066.05.103.074a33.99 33.99 0 0 1 2.94 2.13c2.928 2.356 5.274 4.976 8.125 7.876 8.356 8.488 15.356 19.108 21.793 31.875 1.725 3.42 3.41 6.99 5.07 10.72 1.855 4.175 3.68 8.54 5.493 13.105a273.551 273.551 0 0 0-3.72-13.504 253.303 253.303 0 0 0-3.84-11.683c-6.83-19.183-15.768-36.648-26.25-48.21a67.406 67.406 0 0 0-1.46-1.575C49.993 5.818 43.486 1.538 36.59 0c0 0 .69 2.525.786 4.275.033.286.068.63.1.983.17 2.107.252 5.048.312 6.73.114 3.32-.445 4.587-.215 4.943.662.04 1.327.137 1.987.273h.013"/><path fill="#4c58dd" d="M86.863 61.396c-.023.027-.054.045-.08.07-.12.1-.23.206-.353.3-.25.203-.52.39-.808.575-.202.14-.416.273-.626.4-.157.1-.315.2-.46.295-1.836 1.208-4.15 1.727-5.892 2.342-.04.015-.08.028-.122.04a34.3 34.3 0 0 1-3.482 1.017c-3.66.863-7.17 1.108-11.21 1.585-11.826 1.387-24.506.4-38.535-2.35a240.017 240.017 0 0 1-11.58-2.575c-4.433-1.094-9-2.33-13.715-3.7 4.25 1.887 8.58 3.674 12.944 5.35a258.585 258.585 0 0 0 11.582 4.132c19.338 6.375 38.615 10.034 54.176 8.85a80.477 80.477 0 0 0 2.142-.187c8.622-.934 15.995-3.445 21.44-7.945 0 0-2.418-1.005-3.863-2.002-.242-.153-.535-.333-.834-.53-1.766-1.153-4.14-2.893-5.503-3.878-2.692-1.944-3.35-3.162-3.776-3.202a13.353 13.353 0 0 1-1.442 1.413"/><path fill="#00f7c8" d="M27.363 78.528c-.007-.037-.01-.077-.02-.112-.017-.15-.052-.3-.07-.453-.035-.32-.055-.654-.062-.99-.01-.248-.01-.495-.01-.747 0-.18 0-.368-.005-.547-.06-2.195.713-4.433 1.107-6.24.01-.043.023-.08.03-.126.272-1.227.6-2.385.968-3.495 1.19-3.57 2.83-6.68 4.55-10.366 5.04-10.79 12.55-21.054 22.27-31.54 2.606-2.81 5.36-5.64 8.28-8.495A348.786 348.786 0 0 1 74.761 5.7a273.848 273.848 0 0 0-11.356 8.195 254.3 254.3 0 0 0-9.606 7.673C38.2 34.667 24.948 49.135 17.773 62.99c-.33.64-.66 1.283-.965 1.92-3.746 7.824-5.487 15.417-4.525 22.414 0 0 2.125-1.527 3.734-2.23.257-.13.566-.284.886-.434 1.91-.894 4.64-1.997 6.195-2.637 3.074-1.27 4.453-1.185 4.71-1.53a13.684 13.684 0 0 1-.44-1.953l-.002-.012"/></symbol><symbol viewbox="0 0 155 310" id="icon--social-facebook" class="icon icon--social-facebook"><path d="M5 165.105h33.98V305c0 2.76 2.24 5 5 5h57.617a5 5 0 0 0 5-5V165.763h39.064a5.002 5.002 0 0 0 4.968-4.43l5.934-51.5a5 5 0 0 0-4.966-5.573H106.6V71.978c0-9.732 5.24-14.667 15.576-14.667h29.42a5 5 0 0 0 5-5V5.037a5 5 0 0 0-5-5H111.05c-.285-.014-.92-.037-1.856-.037-7.035 0-31.488 1.38-50.804 19.15-21.402 19.693-18.427 43.27-17.716 47.36v37.75H5a5 5 0 0 0-5 5v50.845a5 5 0 0 0 5 5z"/></symbol><symbol viewbox="0 0 300 300" id="icon--social-instagram" class="icon icon--social-instagram"><path d="M38.52.012h222.978C282.682.012 300 17.336 300 38.52v222.978c0 21.178-17.318 38.49-38.502 38.49H38.52c-21.184 0-38.52-17.313-38.52-38.49V38.52C0 17.336 17.336.012 38.52.012zM218.546 33.33c-7.438 0-13.505 6.09-13.505 13.524v32.314c0 7.437 6.068 13.514 13.506 13.514h33.903c7.425 0 13.505-6.077 13.505-13.514V46.854c0-7.434-6.08-13.525-13.506-13.525h-33.904zm47.538 93.538h-26.396a87.717 87.717 0 0 1 3.86 25.76c0 49.88-41.766 90.34-93.266 90.34-51.487 0-93.254-40.46-93.254-90.34 0-8.964 1.37-17.585 3.86-25.76H33.35V253.6c0 6.563 5.36 11.902 11.916 11.902h208.907c6.563 0 11.91-5.34 11.91-11.902V126.868zm-115.8-35.89c-33.26 0-60.24 26.128-60.24 58.388 0 32.227 26.98 58.375 60.24 58.375 33.277 0 60.258-26.147 60.258-58.374 0-32.26-26.98-58.388-60.26-58.388z"/></symbol><symbol viewbox="0 0 304.36 172.24" id="icon--social-vk" class="icon icon--social-vk"><path fill-rule="evenodd" d="M261.945 109.518c10.096 9.857 20.752 19.13 29.807 29.982 4 4.822 7.787 9.798 10.684 15.394 4.105 7.955.387 16.71-6.746 17.184l-44.34-.02c-11.436.95-20.56-3.655-28.23-11.474-6.14-6.253-11.824-12.908-17.727-19.372-2.42-2.642-4.953-5.128-7.98-7.093-6.052-3.93-11.306-2.727-14.765 3.586-3.523 6.42-4.322 13.53-4.668 20.687-.475 10.44-3.63 13.186-14.12 13.664-22.413 1.057-43.685-2.334-63.446-13.64-17.422-9.97-30.932-24.04-42.69-39.972-22.896-31.02-40.43-65.108-56.187-100.15C-2.01 10.4.584 6.162 9.295 6.012c14.465-.28 28.928-.26 43.41-.02 5.88.086 9.77 3.458 12.04 9.012 7.827 19.243 17.403 37.55 29.423 54.52 3.2 4.52 6.465 9.037 11.113 12.217 5.143 3.522 9.058 2.355 11.477-3.373 1.535-3.632 2.207-7.544 2.553-11.434 1.146-13.383 1.297-26.743-.713-40.08-1.234-8.322-5.922-13.71-14.227-15.285-4.238-.803-3.607-2.38-1.555-4.8C106.38 2.6 109.73 0 116.413 0h50.11c7.89 1.557 9.642 5.1 10.722 13.04l.043 55.662c-.086 3.073 1.535 12.192 7.07 14.226 4.43 1.448 7.35-2.096 10.008-4.905 11.998-12.734 20.56-27.783 28.21-43.366 3.396-6.852 6.315-13.968 9.144-21.078 2.096-5.277 5.385-7.873 11.328-7.758l48.23.043c1.43 0 2.876.02 4.26.258 8.128 1.385 10.355 4.88 7.845 12.817-3.955 12.45-11.65 22.827-19.174 33.25-8.044 11.13-16.646 21.878-24.622 33.073-7.328 10.223-6.746 15.376 2.357 24.255zm0 0" clip-rule="evenodd"/></symbol></svg>